<svg xmlns="http://www.w3.org/2000/svg" data-name="Layer 1" viewBox="0 0 128 128"><path fill="#252f3e" d="M36.071 53.424a13.1 13.1 0 00.47 3.827 22.988 22.988 0 001.362 3.096 1.882 1.882 0 01.299.989 1.713 1.713 0 01-.808 1.29l-2.683 1.806a2.022 2.022 0 01-1.107.387 1.953 1.953 0 01-1.277-.603 13.278 13.278 0 01-1.533-2.021 33.518 33.518 0 01-1.32-2.536 15.67 15.67 0 01-12.517 5.933 11.597 11.597 0 01-8.515-3.096 11.108 11.108 0 01-3.15-8.256 11.114 11.114 0 013.875-8.856c2.598-2.234 6.046-3.354 10.43-3.354a33.177 33.177 0 014.511.344c1.574.216 3.192.56 4.896.947v-3.14c0-3.266-.68-5.546-2-6.88-1.362-1.333-3.66-1.978-6.938-1.978a19.065 19.065 0 00-4.597.56 33.509 33.509 0 00-4.598 1.461 12.362 12.362 0 01-1.49.56 2.622 2.622 0 01-.68.128c-.598 0-.894-.429-.894-1.333v-2.107a2.736 2.736 0 01.299-1.504 3.209 3.209 0 011.192-.904 24.434 24.434 0 015.365-1.936 25.511 25.511 0 016.64-.816c5.067 0 8.77 1.16 11.155 3.483 2.341 2.323 3.533 5.848 3.533 10.576v13.93h.08zm-17.285 6.533a13.694 13.694 0 004.384-.773 9.463 9.463 0 004.045-2.752 6.864 6.864 0 001.448-2.752 15.558 15.558 0 00.427-3.741v-1.806a34.853 34.853 0 00-3.917-.73 32.026 32.026 0 00-4.003-.259c-2.853 0-4.939.56-6.344 1.72a6.016 6.016 0 00-2.085 4.944 6.037 6.037 0 001.576 4.557 5.86 5.86 0 004.469 1.592zm34.186 4.646a2.363 2.363 0 01-1.619-.43 3.509 3.509 0 01-.893-1.677L40.455 29.262a7.565 7.565 0 01-.384-1.72.939.939 0 011.021-1.075h4.174a2.347 2.347 0 011.66.43 3.524 3.524 0 01.851 1.677l7.152 28.463 6.64-28.463a3.05 3.05 0 01.808-1.677 2.903 2.903 0 011.704-.43h3.406a2.548 2.548 0 011.704.43 2.903 2.903 0 01.808 1.677l6.725 28.807 7.365-28.807a3.738 3.738 0 01.85-1.677 2.754 2.754 0 011.662-.43h3.96a.951.951 0 011.064 1.075 4.312 4.312 0 01-.085.688 6.112 6.112 0 01-.299 1.075L80.982 62.539a3.335 3.335 0 01-.893 1.677 2.694 2.694 0 01-1.618.43h-3.662a2.548 2.548 0 01-1.704-.43 3.055 3.055 0 01-.808-1.72L65.7 34.763l-6.555 27.69a3.395 3.395 0 01-.808 1.72 2.619 2.619 0 01-1.704.43zm54.703 1.16a27.958 27.958 0 01-6.554-.774 19.179 19.179 0 01-4.896-1.72 3.088 3.088 0 01-1.32-1.202 3.049 3.049 0 01-.256-1.203v-2.192c0-.904.341-1.333.978-1.333a2.388 2.388 0 01.766.128c.256.085.637.258 1.064.43a22.953 22.953 0 004.683 1.503 25.324 25.324 0 005.067.515 11.39 11.39 0 006.216-1.419 4.642 4.642 0 002.213-4.085 4.22 4.22 0 00-1.15-3.011 10.653 10.653 0 00-4.299-2.235l-6.173-1.936a12.974 12.974 0 01-6.81-4.386 10.3 10.3 0 01-2.128-6.235 9.66 9.66 0 011.149-4.773 11.043 11.043 0 013.064-3.525 13.44 13.44 0 014.427-2.235 18.527 18.527 0 015.365-.728 21.367 21.367 0 012.853.17c.979.129 1.872.302 2.768.473.85.216 1.661.429 2.427.688a9.325 9.325 0 011.789.773 3.688 3.688 0 011.277 1.075 2.328 2.328 0 01.384 1.418v2.022c0 .904-.341 1.376-.978 1.376a4.394 4.394 0 01-1.619-.515 19.321 19.321 0 00-8.173-1.677 10.906 10.906 0 00-5.661 1.202 4.16 4.16 0 00-2 3.827 4.089 4.089 0 001.277 3.053 12.675 12.675 0 004.682 2.365l6.046 1.936c3.064.99 5.28 2.366 6.597 4.128a9.807 9.807 0 011.957 6.019 11.155 11.155 0 01-1.106 4.986 11.56 11.56 0 01-3.107 3.785 13.71 13.71 0 01-4.725 2.407 20.11 20.11 0 01-6.094.905z"/><path fill="#f90" d="M115.723 86.658c-14.005 10.448-34.354 15.995-51.853 15.995A93.284 93.284 0 01.567 78.274c-1.32-1.202-.128-2.837 1.448-1.89a126.705 126.705 0 0063.346 16.984 125.283 125.283 0 0048.317-9.976c2.344-1.075 4.344 1.546 2.045 3.266zm5.832-6.706c-1.79-2.323-11.835-1.117-16.39-.56-1.362.17-1.575-1.032-.34-1.936 8.002-5.675 21.157-4.043 22.69-2.15 1.533 1.937-.427 15.222-7.918 21.584-1.149.99-2.256.472-1.746-.816 1.704-4.256 5.493-13.845 3.704-16.122z"/></svg>