<svg xmlns="http://www.w3.org/2000/svg" id="Layer_1" data-name="Layer 1" viewBox="0 0 128 128"><defs><style>.cls-3{fill:#fff}</style></defs><path fill="#00549d" d="M60.683 1.366a6.793 6.793 0 016.631 0c10.145 5.694 40.673 22.832 50.821 28.526a6.409 6.409 0 013.317 5.582v57.05a6.417 6.417 0 01-3.317 5.585c-10.145 5.694-40.673 22.833-50.821 28.527a6.793 6.793 0 01-6.631 0c-10.145-5.694-40.673-22.833-50.821-28.527a6.416 6.416 0 01-3.314-5.582v-57.05a6.417 6.417 0 013.317-5.584C20.006 24.198 50.54 7.06 60.683 1.366z"/><path fill="#0086d4" d="M7.467 95.46a5.199 5.199 0 01-.92-3.474V35.262a6.372 6.372 0 013.309-5.551L60.498 1.348a7.288 7.288 0 016.867.024c10.109 5.66 40.432 22.554 50.54 28.215a6.327 6.327 0 011.996 1.742z"/><path d="M64 21.668A42.333 42.333 0 10106.333 64 42.341 42.341 0 0064 21.667zm0 63.5A21.167 21.167 0 1185.166 64 21.19 21.19 0 0164 85.167z" class="cls-3"/><path fill="#0075c0" d="M119.895 31.359c1.56 1.46 1.53 3.662 1.53 5.394 0 11.476-.097 44.115.027 55.59a6.568 6.568 0 01-.977 3.408L62.77 64.001z"/><path d="M94.238 51.906h3.024v24.19h-3.024zm9.071 0h3.024v24.19h-3.024z" class="cls-3"/><path d="M88.19 67.025h24.19v3.023H88.19zm0-9.072h24.19v3.024H88.19z" class="cls-3"/></svg>