<svg xmlns="http://www.w3.org/2000/svg" data-name="Layer 1" viewBox="0 0 128 128"><defs><linearGradient id="a" x1="-300.5" x2="-300.5" y1="278.549" y2="340.549" gradientTransform="matrix(2 0 0 -2 665 703)" gradientUnits="userSpaceOnUse"><stop offset="0" stop-color="#155cde"/><stop offset=".278" stop-color="#1f7fe5"/><stop offset=".569" stop-color="#279ceb"/><stop offset=".82" stop-color="#2cafef"/><stop offset="1" stop-color="#2eb5f0"/></linearGradient></defs><path fill="url(#a)" d="M126 64A62 62 0 1164 2a62.007 62.007 0 0162 62z"/><path fill="#fff" d="M67.546 14.524C93.71 16.354 113.6 38.94 113.6 65.168v4.308c0 10.297-8.053 19.183-18.35 19.321a18.468 18.468 0 01-14.418-6.693A24.775 24.775 0 1165.59 39.25c13.184.828 23.21 12.271 23.21 25.477v5.101a6.457 6.457 0 005.548 6.537A6.208 6.208 0 00101.2 70.2v-5.196c0-19.69-14.887-36.733-34.529-38.11a37.235 37.235 0 00-39.777 39.777c1.377 19.642 18.42 34.529 38.11 34.529H70.2a6.2 6.2 0 016.2 6.2 6.2 6.2 0 01-6.2 6.2h-5.032c-26.228 0-48.816-19.89-50.644-46.054a49.656 49.656 0 0153.022-53.022zM64 51.6A12.4 12.4 0 1076.4 64 12.401 12.401 0 0064 51.6z"/></svg>