<svg xmlns="http://www.w3.org/2000/svg" data-name="Layer 1" viewBox="0 0 128 128"><defs><linearGradient id="a" x1="-184" x2="-121" y1="-123.725" y2="-123.725" gradientTransform="matrix(2 0 0 -2 369 -185)" gradientUnits="userSpaceOnUse"><stop offset="0" stop-color="#4c4c4c"/><stop offset="1" stop-color="#343434"/></linearGradient></defs><path fill="url(#a)" d="M64 1a62.99 62.99 0 00-19.467 122.9h38.934A62.99 62.99 0 0064 1z"/><path d="M82.931 120.687l-.031-18.263a18.656 18.656 0 00-2.022-8.464c17.769-3.57 26.416-14.074 26.416-32.058a29.487 29.487 0 00-6.225-18.648 18.7 18.7 0 00.693-3.09 23.19 23.19 0 00-.608-9.4l-.085-.365a34.642 34.642 0 00-1.317-4.373l-.35-.888-.35-.888-.95-.1-.955-.102s-.627-.066-1.578-.066a16.463 16.463 0 00-5.125.76l-.618.207a34.68 34.68 0 00-7.613 3.367 93.22 93.22 0 00-2.942 1.84A63.588 63.588 0 0064 28.374a63.897 63.897 0 00-15.4 1.798 94.608 94.608 0 00-2.967-1.855 34.836 34.836 0 00-7.614-3.368l-.617-.208a16.422 16.422 0 00-5.122-.759c-.951 0-1.578.067-1.578.067l-.952.1-.945.098-.352.885-.356.892a34.362 34.362 0 00-1.32 4.381l-.085.362a23.175 23.175 0 00-.608 9.397 18.848 18.848 0 00.724 3.185 29.624 29.624 0 00-6.098 18.553c0 17.94 8.656 28.438 26.45 32.036a18.92 18.92 0 00-1.423 3.855 10.23 10.23 0 01-1.695.432 15.632 15.632 0 01-2.328.17 10.327 10.327 0 01-4.52-.816 17.755 17.755 0 01-4.454-4.782c-1.458-2.126-3.733-4.907-6.275-6.07a16.244 16.244 0 00-6.391-1.581 7.474 7.474 0 00-1.184.088 5.134 5.134 0 00-3.73 2.457 4.138 4.138 0 00-.278 3.594c.69 1.727 2.681 3.103 4.23 3.954a12.173 12.173 0 013.371 3.493 17.99 17.99 0 011.519 3.125c.274.677.576 1.414.986 2.305 1.48 3.22 6.101 6.061 6.624 6.373 2.539 1.521 6.807 2.01 9.945 2.151l.387.01h.003a30.455 30.455 0 003.163-.224v8.231c.006 1.666-1.692 2.044-3.938 2.01l1.723.58a61.974 61.974 0 0042.22.003l2.214-.825c-2.24-.076-4.379-.442-4.397-1.784z" style="isolation:isolate" opacity=".05"/><path d="M85.36 123.21c-1.279.149-4.035-.343-4.035-2.504v-18.282a17.152 17.152 0 00-2.948-9.614c18.632-3.014 27.338-12.893 27.338-30.908a27.897 27.897 0 00-6.422-18.34 16.867 16.867 0 00.907-3.612 21.612 21.612 0 00-.58-8.823l-.085-.366a32.394 32.394 0 00-1.25-4.154l-.35-.889-.955-.1s-.56-.06-1.414-.06a14.8 14.8 0 00-4.618.677l-.618.208a33.556 33.556 0 00-7.31 3.225 92.072 92.072 0 00-3.468 2.186A61.505 61.505 0 0064 29.95a61.871 61.871 0 00-15.684 1.921 98.78 98.78 0 00-3.493-2.202 33.406 33.406 0 00-7.311-3.225l-.618-.208a14.882 14.882 0 00-4.618-.678c-.853 0-1.414.06-1.414.06l-.951.101-.356.892a32.365 32.365 0 00-1.25 4.155l-.086.365a21.487 21.487 0 00-.58 8.82 16.841 16.841 0 00.939 3.698 28.01 28.01 0 00-6.297 18.254c0 17.965 8.713 27.84 27.36 30.89a17.153 17.153 0 00-2.56 6.186 13.295 13.295 0 01-2.807.806 17.116 17.116 0 01-2.564.19 11.75 11.75 0 01-5.323-1.037 19.358 19.358 0 01-4.952-5.245c-1.103-1.606-3.298-4.463-5.632-5.528a14.647 14.647 0 00-5.736-1.44 6.01 6.01 0 00-.94.07 3.57 3.57 0 00-2.607 1.681 2.566 2.566 0 00-.186 2.23c.564 1.412 2.652 2.678 3.525 3.157a13.593 13.593 0 013.95 4.044 19.752 19.752 0 011.641 3.361c.268.659.56 1.377.958 2.243 1.042 2.265 4.262 4.637 6 5.68 2.375 1.424 6.785 1.82 9.205 1.928l.35.006a42.056 42.056 0 004.709-.425v10.007c0 2.454-3.122 2.552-3.887 2.552-.098 0 1.584.58 1.584.58a62.527 62.527 0 0039.259.003s1.83-.643 1.732-.63z" style="isolation:isolate" opacity=".07"/><path fill="#fff" d="M104.144 61.902a26.427 26.427 0 00-6.669-18.043 15.065 15.065 0 001.169-4.124 20.561 20.561 0 00-.64-8.612 31.537 31.537 0 00-1.181-3.937 14.615 14.615 0 00-5.364.542 34.402 34.402 0 00-7.63 3.298 98.986 98.986 0 00-4 2.539A59.407 59.407 0 0064 31.524a59.927 59.927 0 00-15.961 2.053 98.722 98.722 0 00-4.023-2.554 34.4 34.4 0 00-7.629-3.298 14.615 14.615 0 00-5.364-.542 31.525 31.525 0 00-1.182 3.937 20.562 20.562 0 00-.639 8.612 14.962 14.962 0 001.203 4.199 26.49 26.49 0 00-6.545 17.968c0 18.846 10.18 27.45 28.731 29.72a15.66 15.66 0 00-4.104 8.477 16.21 16.21 0 01-3.975 1.24c-3.478.527-7.154 0-8.924-1.048a20.747 20.747 0 01-5.447-5.711c-1.33-1.94-3.247-4.193-4.986-4.987a11.584 11.584 0 00-5.775-1.247c-1.247.199-1.837 1.115-1.575 1.774a7.138 7.138 0 002.822 2.362 15.08 15.08 0 014.53 4.593 43.602 43.602 0 012.69 5.774c.785 1.707 3.469 3.84 5.38 4.986 1.642.986 4.92 1.547 8.468 1.708a50.464 50.464 0 006.561-.65v11.813a3.23 3.23 0 01-3.752 3.191 62.808 62.808 0 0038.994.006 3.233 3.233 0 01-3.748-3.194v-18.282a15.656 15.656 0 00-4.325-10.79c18.415-2.21 28.719-10.608 28.719-29.732zM23.803 91.49c-.485-.249-.747-.709-.583-1.033s.693-.384 1.178-.136.747.71.583 1.034-.693.384-1.178.135zm3.818 2.378c-.255.277-.804.19-1.226-.195s-.557-.923-.302-1.2.803-.19 1.225.195.558.923.303 1.2zm2.375 3.938c-.322.227-.866.015-1.216-.473s-.372-1.07-.05-1.298.866-.015 1.216.473c.346.488.371 1.071.05 1.298zm3.411 2.964c-.217.353-.835.368-1.376.038s-.807-.885-.59-1.238.835-.369 1.377-.038.807.885.59 1.238zm3.226 2.901c-.671-.082-1.169-.5-1.112-.935.053-.435.643-.719 1.31-.637.67.082 1.169.501 1.112.936-.053.431-.64.718-1.31.636zm5.2.753c-.715-.041-1.272-.45-1.244-.91s.63-.803 1.345-.762 1.273.45 1.245.91c-.029.463-.63.803-1.346.762zm4.908-.492c-.762 0-1.38-.397-1.38-.885s.617-.885 1.38-.885 1.38.397 1.38.885-.621.886-1.38.886z"/></svg>