<svg id="Layer_1" data-name="Layer 1" xmlns="http://www.w3.org/2000/svg" width="128" height="128"><defs><style>.cls-1{fill:#d94648}</style></defs><path class="cls-1" d="M88.514 71.747l-.224 1.95q-.23 2.007-.463 4.014l-.455 3.965-.464 4.014-.505 4.398-.462 3.99c-.048.408-.1.816-.141 1.225a.573.573 0 01-.26.39 6.208 6.208 0 01-1.613.866 34.574 34.574 0 01-5.869 1.69 66.468 66.468 0 01-7.675 1.13 74.48 74.48 0 01-8.949.263 69.751 69.751 0 01-6.969-.552 55.018 55.018 0 01-8.685-1.76 16.445 16.445 0 01-3.39-1.328c-.05-.028-.097-.058-.145-.087a1.08 1.08 0 01-.608-.933c-.082-1.28-.232-2.554-.354-3.83l-.42-4.384c-.137-1.438-.27-2.875-.407-4.313s-.278-2.874-.415-4.311c-.082-.859-.16-1.718-.24-2.575.019-.008.038-.022.045-.017a3.509 3.509 0 003.379.242 11.342 11.342 0 003.242-2.082 24.549 24.549 0 001.975-1.927c.054-.058.103-.12.18-.21a.456.456 0 01-.047.308c-.57 1.772-1.139 3.543-1.603 5.347a4.233 4.233 0 00-.068 1.705.783.783 0 001.331.531 3.17 3.17 0 001.038-1.68c.577-1.956 1.155-3.91 1.713-5.87.606-2.126 1.376-4.194 2.135-6.266a8.624 8.624 0 00.548-2.935 1.058 1.058 0 00-1.267-1.177 1.337 1.337 0 00-.893.53 2.271 2.271 0 00-.352.685c-.321.963-.67 1.917-.957 2.89a7.283 7.283 0 01-1.204 2.327 20.807 20.807 0 01-3.862 4.022 6.533 6.533 0 01-1.572.942 2.014 2.014 0 01-.826.157 1.27 1.27 0 01-1.104-.787 3.664 3.664 0 01-.348-1.546 10.47 10.47 0 01.35-3.163 27.657 27.657 0 015.414-10.757 9.565 9.565 0 012.43-2.164 3.177 3.177 0 011.428-.489 2.214 2.214 0 012.02 1.02c.255.345.436.734.663 1.096a5.102 5.102 0 00.608.843.974.974 0 001.554-.058 2.112 2.112 0 00.338-1.658 2.077 2.077 0 00-.395-1 7.182 7.182 0 00-1.955-2.025 4.975 4.975 0 00-5.005-.284 12.312 12.312 0 00-4.052 3.089 26.346 26.346 0 00-4.553 7.21 28.441 28.441 0 00-1.164 3.123.453.453 0 01-.102.229l-3.4-31.291a11.806 11.806 0 001.342.56A31.983 31.983 0 0041.79 36.2c1.686.282 3.383.49 5.084.664 1.452.149 2.907.264 4.364.366 2.746.192 5.495.306 8.246.366 2.227.049 4.455.074 6.683.042 2.284-.034 4.567-.084 6.849-.188 2.37-.109 4.737-.258 7.098-.483a73.572 73.572 0 008.21-1.157 17.083 17.083 0 004.054-1.253c.155-.075.175-.03.159.118-.11 1.01-.216 2.02-.324 3.03l-.413 3.826-.464 4.281-.406 3.753-.47 4.354-.402 3.728-.469 4.33-.45 4.186q-.126 1.179-.248 2.358a.323.323 0 01-.119.226c-1.547 1.344-3.064 2.724-4.713 3.947a4.959 4.959 0 01-.949.578.965.965 0 01-.517.088.388.388 0 01-.308-.63 11.651 11.651 0 01.922-1.122 28.64 28.64 0 002.67-3.437 7.366 7.366 0 00.89-1.872 2.099 2.099 0 00-1.824-2.824 3.788 3.788 0 00-2.675.6 12.605 12.605 0 00-2.697 2.228c-.05.05-.082.122-.178.145.084-.434.173-.857.221-1.288a.94.94 0 00-1.1-1.155.92.92 0 00-.652.417 6.471 6.471 0 00-.883 1.686q-.386.978-.674 1.99a1.426 1.426 0 01-.431.72c-.541.482-1.045 1.008-1.591 1.487a22.183 22.183 0 01-2.628 2.057 5.825 5.825 0 01-.893.482 1.595 1.595 0 01-.512.138c-.325.022-.462-.092-.485-.422a2.678 2.678 0 01.127-.954c.342-1.153.828-2.253 1.274-3.367 1.617-4.04 3.233-8.079 4.99-12.06a6.152 6.152 0 00.412-1.058 1.145 1.145 0 00-1.073-1.551 1.52 1.52 0 00-1.303.67 2.235 2.235 0 00-.257.491c-2.044 5.187-4.133 10.357-6.141 15.558a9.37 9.37 0 00-.413 1.313.553.553 0 01-.22.33 6.836 6.836 0 01-2.02 1.17 1.744 1.744 0 01-.616.107.528.528 0 01-.58-.59 7.114 7.114 0 01.416-2.225c.425-1.366 1.051-2.65 1.595-3.968a7.504 7.504 0 00.528-1.527 1.39 1.39 0 00-.195-.999.994.994 0 00-1.642-.128 3.352 3.352 0 00-.552.934q-.207.515-.389 1.04a17.373 17.373 0 01-2.955 5.377 6.569 6.569 0 01-1.352 1.24 3.031 3.031 0 01-1.336.526c-.66.089-.96-.203-.915-.879a9.936 9.936 0 01.877-3.177c.458-1.095 1.047-2.125 1.58-3.183a6.221 6.221 0 00.34-.748 1.034 1.034 0 00-.998-1.475 1.468 1.468 0 00-1.387.764 12.06 12.06 0 00-.695 1.408 38.423 38.423 0 00-2.38 6.326 4.72 4.72 0 00-.18 2.29 1.967 1.967 0 001.842 1.611 5.519 5.519 0 004.283-1.546 8.61 8.61 0 001.509-1.79.544.544 0 01.173-.185c-.041.286-.094.57-.122.857a4.423 4.423 0 00.06 1.635 1.39 1.39 0 001.529 1.054 5.504 5.504 0 002.314-.858 9.033 9.033 0 001.102-.745c.123-.098.162-.08.194.072a1.8 1.8 0 002.084 1.533 6.109 6.109 0 002.967-1.202 15.93 15.93 0 001.95-1.588c.063-.059.111-.141.21-.157.031.098-.033.171-.067.249-.972 2.24-2.048 4.433-3.046 6.662a10.967 10.967 0 00-.87 2.455 2.334 2.334 0 00-.018.675.91.91 0 00.878.873 1.63 1.63 0 001.554-.647 4.237 4.237 0 00.692-1.322 92.766 92.766 0 013.803-9.38 16.31 16.31 0 013.444-4.905 5.093 5.093 0 012.07-1.3 2.067 2.067 0 01.742-.078.442.442 0 01.44.614 2.609 2.609 0 01-.394.798c-.649.978-1.436 1.846-2.174 2.754a16.657 16.657 0 00-1.863 2.618 2.27 2.27 0 00-.275 1.563 1.727 1.727 0 001.576 1.29 5.62 5.62 0 003.771-.93 20.438 20.438 0 002.91-2.285c.3-.269.594-.544.941-.863z"/><path class="cls-1" d="M43.08 97.8c.613.235 1.169.441 1.734.62a48.769 48.769 0 005.939 1.435q2.189.402 4.4.657 1.994.233 4 .352a72.38 72.38 0 005.782.135 77.14 77.14 0 006.688-.411 63.759 63.759 0 008.945-1.566 28.396 28.396 0 003.66-1.16c.049-.02.096-.067.16-.028.006.087-.055.146-.093.213Q82.7 100.84 81.1 103.63a1.343 1.343 0 00-.186.614q-.125 2.332-.259 4.664-.181 3.153-.368 6.307c-.089 1.538-.172 3.077-.26 4.616-.08 1.41-.157 2.819-.244 4.228a1.402 1.402 0 01-.492.918 5.734 5.734 0 01-1.879 1.12 20.562 20.562 0 01-4.046 1.118 48.56 48.56 0 01-7.211.744 58.936 58.936 0 01-6.508-.117 36.034 36.034 0 01-7.758-1.297 9.126 9.126 0 01-2.864-1.312 1.94 1.94 0 01-.825-1.558c-.093-1.699-.24-3.395-.364-5.093q-.155-2.112-.306-4.224-.184-2.51-.371-5.02-.131-1.785-.259-3.572c-.035-.499-.073-.998-.103-1.497a.791.791 0 00-.144-.353q-1.71-2.923-3.422-5.845c-.04-.069-.078-.14-.151-.272zM63.974 36.307c-2.397.016-4.794-.035-7.19-.117-2.314-.08-4.627-.203-6.935-.386-2.758-.219-5.51-.495-8.24-.958a27.41 27.41 0 01-4.648-1.11 5.992 5.992 0 01-1.079-.485 3.234 3.234 0 01-.399-.272.743.743 0 01.004-1.308 5.706 5.706 0 011.89-.895 31.167 31.167 0 014.524-1.017q1.849-.308 3.713-.507c1.259-.135 2.52-.251 3.781-.363 1.632-.144 3.267-.235 4.902-.32q1.221-.063 2.443-.106c3.631-.124 7.263-.143 10.895-.093q1.32.019 2.638.078c.224.01.302-.06.356-.267q1.498-5.829 3.008-11.654a.905.905 0 01.223-.417Q81.38 8.205 88.887.29a.839.839 0 01.852-.25 2.814 2.814 0 01.853.33 5.87 5.87 0 012.037 1.963 3.23 3.23 0 01.197.387.65.65 0 01-.148.806q-7.037 7.41-14.06 14.833a.744.744 0 00-.198.349q-1.196 4.87-2.405 9.738c-.043.175-.051.255.18.27 1.377.096 2.752.199 4.126.323a82.3 82.3 0 014.995.6 37.463 37.463 0 014.826.993 9.332 9.332 0 011.847.709 2.139 2.139 0 01.739.575.63.63 0 01-.002.824 2.157 2.157 0 01-.781.598 12.793 12.793 0 01-2.88.969 52.721 52.721 0 01-5.765.982c-2.81.35-5.632.573-8.46.73-2.2.123-4.401.199-6.604.25-1.42.032-2.841.026-4.262.038zm5.424-3.37a1.207 1.207 0 00-.543.247c-.263.202-.263.406-.005.61a1.86 1.86 0 00.698.322 10.618 10.618 0 004.602.12 2.84 2.84 0 001.15-.414c.302-.21.3-.44.008-.657a1.122 1.122 0 00-.408-.198c-.005.38-.297.46-.578.55-.03.01-.062.017-.093.025a10.239 10.239 0 01-3.294.164 4.372 4.372 0 01-1.318-.278c-.197-.083-.372-.19-.219-.491zM62.134 72.207l.003.016-.011-.002.008-.014zM74.449 72.853l-.015.013c-.004-.005-.01-.011-.01-.016s.009-.009.014-.013z"/><path d="M69.398 32.937c-.153.3.022.408.219.49a4.372 4.372 0 001.318.28 10.239 10.239 0 003.294-.165c.031-.007.063-.014.093-.024.281-.09.572-.17.578-.55a1.122 1.122 0 01.408.197c.292.217.294.448-.007.657a2.84 2.84 0 01-1.15.415 10.618 10.618 0 01-4.603-.12 1.86 1.86 0 01-.698-.322c-.258-.204-.258-.41.005-.61a1.207 1.207 0 01.543-.248z" fill="#fefefe"/></svg>