<svg xmlns="http://www.w3.org/2000/svg" data-name="Layer 1" viewBox="0 0 128 128"><path fill="#e6d255" d="M119.467.474H8.545a8.074 8.074 0 00-8.071 8.07v110.911a8.074 8.074 0 008.07 8.071h110.911a8.071 8.071 0 008.071-8.059V8.545a8.071 8.071 0 00-8.059-8.071zM70.05 97.83c0 12.088-7.09 17.595-17.441 17.595a21.237 21.237 0 01-18.86-12.1l9.513-5.755c1.831 3.25 4.62 5.755 8.638 5.755 3.84 0 6.05-1.5 6.05-7.338V57.95h12.1zm26.245 17.595c-10.718 0-16.803-5.4-20.195-12.1l9.075-6.05c2.47 4.041 5.164 7.905 10.86 7.905 4.785 0 7.29-2.387 7.29-5.695 0-3.947-2.6-5.353-7.858-7.658l-2.883-1.24c-8.33-3.545-13.872-7.988-13.872-17.394 0-8.65 6.605-15.244 16.91-15.244 7.338 0 12.608 2.553 16.413 9.24l-8.98 5.78c-1.986-3.558-4.113-4.952-7.433-4.952-3.38 0-5.519 2.15-5.519 4.951 0 3.462 2.139 4.857 7.09 7.007l2.883 1.241c9.82 4.195 15.35 8.484 15.35 18.127 0 10.386-8.165 16.082-19.131 16.082z"/></svg>