<svg xmlns="http://www.w3.org/2000/svg" id="Layer_1" data-name="Layer 1" viewBox="0 0 128 128"><defs><style>.cls-1{fill:#c3e57c}.cls-3{fill:#93c657}.cls-4{fill:#8bc155}</style></defs><path d="M97.864 91.61c-1.357 1.06-1.964 2.704-3.08 3.955a12.607 12.607 0 01-2.006 2.03c.093-.816-.37-1.098-1.091-1.225a1.786 1.786 0 01-1.706-1.756c-.076-1.739-.15-3.478-.195-5.218a1.924 1.924 0 00-.486-1.364 4.481 4.481 0 01-1.16-2.358c-.166-.907-.43-1.814-1.51-2.142-.51-.155-.646-.617-.644-1.121.008-1.687-.317-3.36-.206-5.053a2.002 2.002 0 00-.53-1.552 5.189 5.189 0 01-1.3-2.722c-.144-.781-.404-1.555-1.374-1.755a.633.633 0 01-.562-.616c.03-1.821-.628-3.603-.38-5.42a2.111 2.111 0 00-.525-1.8 5.809 5.809 0 01-1.304-2.954 1.654 1.654 0 00-1.072-1.43 1.124 1.124 0 01-.856-.996c.037-1.242-.395-2.405-.473-3.62.045-.158.08-.32.136-.475 1.181-3.274 2.608-6.446 4.006-9.63 2.526-5.755 4.675-11.672 7.467-17.313a5.253 5.253 0 00.303-1.043c.043-.166.034-.34-.175-.4-.199-.057-.304.076-.387.228-.08.146-.148.298-.231.44-1.406 2.412-2.243 5.083-3.472 7.578-1.435 2.911-2.701 5.905-4.153 8.808-1.436 2.871-2.463 5.946-4.274 8.63-.63-.306-.684-.916-.816-1.5a6.696 6.696 0 00-1.233-3.274 5.39 5.39 0 01-.988-2.453c-.303-1.26-.14-2.546-.36-3.805a1.878 1.878 0 00-1.042-1.67 2.212 2.212 0 01-1.172-1.837c-.138-.665.056-1.481-.48-1.969a2.222 2.222 0 01-.704-2.052 4.944 4.944 0 00-.294-1.953 19.94 19.94 0 01-.536-3.012 13.163 13.163 0 00-.54-3.514c-.137-.315-.252-.666-.565-.371-.407.384-1.211.595-.897 1.457.064.177.098.45-.136.508a.783.783 0 01-.54-.174c-.282-.2-.431-.614-.887-.52a9.617 9.617 0 012.336-2.142c3.006-2.191 5.955-4.468 9.051-6.524 3.008-1.998 6.018-3.996 9.1-5.888 3.975-2.442 7.841-5.064 11.73-7.646.987-.656.928-.718 1.338.46a157.644 157.644 0 016.226 22.51c.856 4.527 1.53 9.075 1.965 13.667a92.351 92.351 0 01.509 13.612c-.429 8.052-1.26 16.039-3.797 23.78a67.058 67.058 0 01-4.88 12.151 2.653 2.653 0 00-.17.571 2.99 2.99 0 00-.978 1.882z" class="cls-1"/><path d="M65.434 25.177c.456-.095.605.32.887.52a.783.783 0 00.54.174c.234-.058.2-.332.136-.508-.314-.862.49-1.074.897-1.457.314-.295.428.056.565.37a13.163 13.163 0 01.54 3.515 19.94 19.94 0 00.536 3.012 4.944 4.944 0 01.294 1.952 2.222 2.222 0 00.704 2.053c.536.488.342 1.303.48 1.969a2.212 2.212 0 001.172 1.837 1.878 1.878 0 011.043 1.67c.22 1.26.056 2.545.36 3.805a5.39 5.39 0 00.988 2.453 6.696 6.696 0 011.233 3.274c.13.583.186 1.194.815 1.5.13.7-.378 1.175-.626 1.737-2.4 5.417-4.918 10.777-7.648 16.037-.451.87-.53 1.937-1 2.792a55.48 55.48 0 00-2.434 5.068c-2.204 5.202-4.957 10.146-7.096 15.384-.767 1.876-1.739 3.7-2.615 5.55-.116.242-.216.494-.541.512l-.596-.249c-.044-.09-.106-.123-.197-.06l-.593.002a2.502 2.502 0 00-1.244-1.056 17.96 17.96 0 01-7.769-6.311 31.386 31.386 0 01-4.73-15.577 37.254 37.254 0 01.176-6.85c.195-1.602.402-3.203.603-4.805a.741.741 0 00.383-.842c.631-1.91 1.257-3.823 1.902-5.729a67.995 67.995 0 014.494-10.169 65.689 65.689 0 016.19-9.965 31.099 31.099 0 015.765-6.022 2.909 2.909 0 002.199-1.997l-.002.002c1.427-.086 1.996-.57 2.375-2.021l-.006.006a1.728 1.728 0 001.822-1.577zm11.969 29.315c.08 1.216.51 2.379.474 3.62a1.124 1.124 0 00.856.996 1.654 1.654 0 011.071 1.43 5.809 5.809 0 001.305 2.954 2.111 2.111 0 01.524 1.8c-.247 1.817.41 3.6.381 5.42a.633.633 0 00.562.617c.97.2 1.23.973 1.373 1.754a5.189 5.189 0 001.301 2.723 2.002 2.002 0 01.53 1.552c-.11 1.694.214 3.366.206 5.053-.002.504.134.966.645 1.121 1.079.328 1.343 1.235 1.508 2.142a4.481 4.481 0 001.161 2.358 1.924 1.924 0 01.487 1.363c.044 1.74.118 3.48.194 5.219a1.786 1.786 0 001.706 1.755c.721.127 1.185.41 1.091 1.226l.002-.003a1.788 1.788 0 01-1.042-.538c-.233-.227-.528-.384-.8-.173-.29.226-.152.534.032.797.336.479.248.833-.261 1.15a1.737 1.737 0 00-.932 1.547l-.001.001c-1.639-.331-2.134.942-2.791 1.988a30.877 30.877 0 01-12.606 5.104 16.371 16.371 0 01-12.146-2.662c-1.498-.98-2.84-2.14-4.273-3.191-.003-.4-.48-.477-.562-.824a1.497 1.497 0 00.609-.992 30.465 30.465 0 011.544-3.969c1.797-4.227 3.67-8.422 5.497-12.636 1.35-3.118 2.526-6.307 3.974-9.386.985-2.094 1.827-4.255 2.718-6.392 1.398-3.356 2.952-6.646 4.167-10.079a5.52 5.52 0 011.496-2.845zm8.44 42.866a1.286 1.286 0 00-.041.291c.006.063 0 .25.144.098.05-.053.03-.183.02-.276-.003-.034-.066-.063-.124-.113z" fill="#bbe071"/><path d="M26.714 104.806c-4.86-3.404-7.561-8.36-9.774-13.652-4.014-9.596-4.909-19.634-4.22-29.902a98.59 98.59 0 011.277-10.47c.217-1.232.34-1.305 1.469-.802 2.882 1.285 5.834 2.436 8.624 3.897 1.93 1.012 3.936 1.862 5.857 2.89 1.06.569 2.23.93 3.295 1.519a5.085 5.085 0 011.727 1.128c-1.136.206-1.163.249-.715 1.329a5.385 5.385 0 01.278.943c.343 1.588-.303 3.052-.513 4.568-.238 1.724-.703 3.412-.341 5.199a2.675 2.675 0 01-.75 2.476 1.363 1.363 0 00-.495.945c.047 1.854-.97 3.564-.717 5.441a.378.378 0 01-.17.432c-.236.116-.381-.05-.493-.21-.473-.674-.937-1.354-1.398-2.036-2.3-3.404-4.591-6.813-6.904-10.208-.261-.383-.65-1.163-.96-.917-.484.383.273.771.486 1.165.078.145.178.279.265.42q2.855 4.658 5.706 9.32a14.296 14.296 0 011.937 3.448c.415 1.568.908 3.09 1.46 4.608a2.87 2.87 0 01-.227 2.475 4.743 4.743 0 00-.426 2.771 51.642 51.642 0 01-.424 6.287 2.05 2.05 0 01-.223.55c-.57 1.47-1.546 2.806-1.45 4.497.008.155-.172.363-.318.479-.61.484-1.24.942-1.863 1.41z" class="cls-3"/><path d="M26.714 104.806c.623-.468 1.253-.926 1.862-1.41.146-.116.327-.324.318-.479-.096-1.69.88-3.027 1.45-4.496a2.05 2.05 0 00.224-.55 51.642 51.642 0 00.424-6.287 4.743 4.743 0 01.425-2.772 2.87 2.87 0 00.228-2.475 53.018 53.018 0 01-1.46-4.608 14.296 14.296 0 00-1.937-3.448q-2.84-4.668-5.707-9.32c-.086-.141-.186-.275-.265-.42-.213-.393-.97-.782-.485-1.165.31-.246.698.534.96.918 2.312 3.394 4.604 6.803 6.903 10.207.461.682.925 1.362 1.399 2.036.112.16.257.326.493.21a.378.378 0 00.17-.432c-.253-1.877.764-3.586.716-5.44a1.363 1.363 0 01.496-.946 2.675 2.675 0 00.75-2.476c-.362-1.786.102-3.475.34-5.199.21-1.516.856-2.98.513-4.568a5.385 5.385 0 00-.278-.943c-.447-1.08-.42-1.122.716-1.328l-.005.015a2.033 2.033 0 001.718 1.748 2.549 2.549 0 011.702.914 3.343 3.343 0 001.93 1.398c-.201 1.602-.408 3.202-.603 4.805a37.254 37.254 0 00-.176 6.85 31.386 31.386 0 004.73 15.576 17.96 17.96 0 007.77 6.311 2.502 2.502 0 011.243 1.056l-1.98 1.498c-2.627 1.98-5.58 3.437-8.354 5.18a43.934 43.934 0 01-6.966 3.797 21.15 21.15 0 01-8.34-3.021c-.327-.216-.616-.49-.924-.736z" class="cls-4"/><path d="M35.978 108.563a43.934 43.934 0 006.966-3.798c2.775-1.742 5.727-3.2 8.355-5.18q.99-.746 1.979-1.497l.593-.001.197.06.596.249 2.733 2.396c.083.346.56.423.562.823-9.553 2.55-17.981 7.333-25.951 13.039a89.035 89.035 0 01-8.524 5.35 19.528 19.528 0 01-4.202 1.807 7.071 7.071 0 00-3.533 2.141 4.535 4.535 0 01-3.635 1.537 57.497 57.497 0 01-9.978-1.25 6.251 6.251 0 00-1.083-.164c-.865.01-1.09-.384-1.048-1.22.074-1.501.019-1.502 1.467-1.415a32.528 32.528 0 008.84-.328c3.072-.658 5.7-1.985 7.441-4.726a1.154 1.154 0 01.237-.2c.286.38.006 1.03.544 1.2.479.15.89-.189 1.303-.381 5.091-2.374 10.117-4.876 14.99-7.676a3.736 3.736 0 001.15-.766zM97.864 91.61a2.99 2.99 0 01.978-1.882 34.658 34.658 0 009.208.723 12.178 12.178 0 005.766-2.003 90.833 90.833 0 0010.338-8.27c.882-.757 1.75-1.53 2.637-2.28.293-.249.752-.722.99-.414a1.372 1.372 0 01-.057 1.565 1.651 1.651 0 01-.385.312q-5.66 4.328-11.32 8.653c-1.121.854-1.194 1.115-.367 2.253.529.727.208 1.004-.5 1.144a30.625 30.625 0 01-5.246.56c-4.019.09-8.033-.068-12.042-.361z" fill="#4a4b47"/><path d="M40.315 63.49a3.343 3.343 0 01-1.93-1.399 2.549 2.549 0 00-1.703-.914 2.033 2.033 0 01-1.718-1.747 20.782 20.782 0 015.041 2.954 1.262 1.262 0 00.692.263.74.74 0 01-.382.842z" class="cls-3"/><path d="M89.776 100.375a1.737 1.737 0 01.933-1.546c.509-.318.596-.672.26-1.15-.183-.264-.322-.572-.03-.798.27-.21.566-.054.798.173a1.788 1.788 0 001.043.538 7.93 7.93 0 01-3.004 2.783zm-2.792 1.989c.658-1.046 1.153-2.319 2.791-1.988a5.453 5.453 0 01-2.79 1.988z" class="cls-1"/><path d="M57.397 100.791l-2.734-2.395c.326-.018.426-.27.542-.513.877-1.849 1.848-3.673 2.615-5.55 2.14-5.237 4.892-10.182 7.096-15.384a55.48 55.48 0 012.435-5.067c.47-.855.548-1.923 1-2.792 2.73-5.26 5.248-10.62 7.647-16.038.248-.562.756-1.037.626-1.737 1.811-2.684 2.839-5.759 4.275-8.63 1.45-2.903 2.718-5.897 4.152-8.808 1.229-2.495 2.066-5.166 3.472-7.577.083-.143.152-.295.231-.44.083-.153.188-.286.387-.229.209.06.218.234.175.4a5.253 5.253 0 01-.304 1.043c-2.791 5.64-4.94 11.558-7.466 17.313-1.398 3.184-2.825 6.356-4.006 9.63-.056.155-.091.317-.136.475a5.518 5.518 0 00-1.497 2.845c-1.215 3.433-2.769 6.723-4.167 10.079-.89 2.137-1.734 4.298-2.718 6.392-1.448 3.079-2.624 6.268-3.974 9.385-1.827 4.215-3.7 8.41-5.497 12.637a30.465 30.465 0 00-1.545 3.969 1.497 1.497 0 01-.609.992z" class="cls-3"/><path d="M54.068 98.147l-.197-.06c.091-.063.153-.03.197.06z" class="cls-4"/><path d="M85.842 97.358c.058.05.12.079.124.113.01.093.03.223-.02.276-.143.151-.138-.034-.144-.098a1.286 1.286 0 01.04-.29z" class="cls-1"/></svg>