<svg xmlns="http://www.w3.org/2000/svg" id="Layer_1" data-name="Layer 1" viewBox="0 0 128 128"><defs><style>.cls-2{fill:#4caf50}</style></defs><path fill="#5d4037" d="M120.7 42.895C120.7 107.47 64 127 64 127S7.3 107.47 7.3 42.895A165.87 165.87 0 018.56 23.05 18.498 18.498 0 0122.42 6.985 155.757 155.757 0 0164 1a160.444 160.444 0 0141.895 5.985 18.857 18.857 0 0113.86 16.065c.315 5.355.945 12.285.945 19.845z"/><path d="M64 10.45c15.435 0 29.925 3.15 39.375 5.67 3.78.945 6.3 4.095 6.93 8.19a179.01 179.01 0 01.945 18.585c0 49.14-36.225 68.985-47.25 73.71-11.025-5.04-47.25-24.885-47.25-73.71a179.01 179.01 0 01.945-18.585 9.075 9.075 0 016.93-8.19c9.45-2.52 23.94-5.67 39.375-5.67M64 1a160.444 160.444 0 00-41.895 5.985A18.527 18.527 0 008.56 23.05 170.525 170.525 0 007.3 42.895C7.3 107.47 64 127 64 127s56.7-19.53 56.7-84.105a165.87 165.87 0 00-1.26-19.845 18.498 18.498 0 00-13.86-16.065A155.757 155.757 0 0064 1z" class="cls-2"/><path fill="#dcedc8" d="M60.85 76.6h6.3v25.2h-6.3z"/><path d="M64 19.9S45.1 35.65 45.1 60.85c0 16.38 10.395 26.775 15.75 31.5L64 82.9l3.15 9.45c5.355-4.725 15.75-15.12 15.75-31.5C82.9 35.65 64 19.9 64 19.9z" class="cls-2"/><path fill="#81c784" d="M64 19.9S45.1 35.65 45.1 60.85c0 16.38 10.395 26.775 15.75 31.5L64 82.9z"/></svg>