<svg xmlns="http://www.w3.org/2000/svg" id="Layer_1" data-name="Layer 1" viewBox="0 0 128 128"><defs><style>.cls-1{fill:#00546b}</style></defs><path d="M117.41 98.042c-6.902-.172-12.25.518-16.736 2.416-1.294.517-3.364.518-3.537 2.156.69.69.777 1.812 1.38 2.76a20.21 20.21 0 004.486 5.263c1.811 1.38 3.623 2.76 5.52 3.967 3.364 2.07 7.16 3.278 10.438 5.349 1.898 1.206 3.795 2.76 5.693 4.054.95.69 1.552 1.811 2.76 2.243v-.26c-.604-.776-.776-1.897-1.38-2.76-.862-.862-1.725-1.638-2.588-2.5a40.92 40.92 0 00-8.97-8.713c-2.76-1.898-8.8-4.486-9.92-7.678l-.173-.172a35.044 35.044 0 005.952-1.38c2.933-.776 5.607-.604 8.626-1.38 1.38-.345 2.76-.776 4.14-1.207v-.777c-1.552-1.553-2.674-3.623-4.313-5.09a114.989 114.989 0 00-14.233-10.61c-2.674-1.725-6.125-2.847-8.971-4.313-1.035-.519-2.76-.777-3.364-1.64-1.553-1.897-2.416-4.398-3.537-6.642-2.5-4.744-4.916-10.005-7.073-15.008-1.552-3.364-2.501-6.729-4.4-9.834-8.883-14.665-18.545-23.55-33.382-32.262-3.192-1.811-6.987-2.588-11.041-3.536-2.156-.087-4.313-.26-6.47-.346-1.38-.604-2.76-2.242-3.968-3.019-4.916-3.106-17.597-9.833-21.22-.949-2.329 5.607 3.45 11.128 5.434 13.975a40.667 40.667 0 014.4 6.47c.604 1.465.776 3.019 1.38 4.572A103.566 103.566 0 0016.83 42.75a41.675 41.675 0 003.191 5.347c.69.949 1.897 1.38 2.156 2.933-1.207 1.725-1.293 4.313-1.984 6.47-3.105 9.748-1.897 21.824 2.502 28.984 1.38 2.156 4.658 6.901 9.057 5.09 3.882-1.553 3.02-6.47 4.14-10.783.26-1.036.087-1.725.604-2.415v.172c1.208 2.416 2.415 4.745 3.537 7.16 2.674 4.227 7.332 8.627 11.214 11.56 2.07 1.552 3.71 4.226 6.297 5.175v-.259h-.172a9.52 9.52 0 00-1.984-1.725 41.87 41.87 0 01-4.486-5.176 110.964 110.964 0 01-9.661-15.7c-1.38-2.674-2.588-5.607-3.71-8.28-.517-1.036-.517-2.588-1.38-3.106-1.294 1.898-3.19 3.537-4.14 5.866-1.638 3.709-1.811 8.28-2.415 13.025-.345.087-.173 0-.345.173-2.76-.69-3.71-3.537-4.745-5.953-2.588-6.124-3.019-15.958-.776-23.03.604-1.813 3.192-7.506 2.157-9.23-.518-1.64-2.243-2.589-3.192-3.882a34.766 34.766 0 01-3.105-5.521c-2.07-4.83-3.106-10.18-5.349-15.01a45.927 45.927 0 00-4.313-6.642c-1.638-2.33-3.45-3.968-4.744-6.729-.43-.95-1.035-2.502-.345-3.537a1.375 1.375 0 011.208-1.121c1.121-.95 4.313.258 5.434.776a43.986 43.986 0 018.54 4.313c1.207.862 2.501 2.502 4.054 2.933h1.812c2.76.603 5.865.173 8.453.949a55.131 55.131 0 0112.422 5.952A76.53 76.53 0 0173.675 51.03c1.035 1.983 1.466 3.796 2.415 5.866 1.812 4.227 4.054 8.54 5.866 12.68 1.81 4.054 3.536 8.195 6.124 11.56 1.294 1.81 6.47 2.76 8.799 3.709 1.725.776 4.4 1.466 5.952 2.415 2.932 1.81 5.865 3.882 8.626 5.865 1.38 1.035 5.693 3.192 5.952 4.917z" class="cls-1"/><path d="M33.654 31.235a10.78 10.78 0 00-2.79.34v.137h.135a21.915 21.915 0 002.179 2.791c.545 1.09 1.021 2.179 1.566 3.269l.136-.137a3.84 3.84 0 001.43-3.404 15.256 15.256 0 01-.817-1.43c-.409-.681-1.294-1.021-1.839-1.566z" class="cls-1"/></svg>