<svg xmlns="http://www.w3.org/2000/svg" data-name="Layer 1" viewBox="0 0 128 128"><path fill="#4650a2" d="M64 29.333C28.115 29.333 0 44.563 0 64s28.115 34.667 64 34.667S128 83.437 128 64 99.885 29.333 64 29.333zM57.354 40h6.99l-2.219 10.667h6.24c3.958 0 6.615.552 8.125 1.937 1.48 1.365 1.927 3.604 1.333 6.656L75.053 72h-7.105L70.5 60.219c.313-1.615.188-2.74-.354-3.334S68.416 56 66.636 56h-5.594l-3.375 16h-7zM26.667 50.667h14.218c6.782 0 10.886 4.541 9.282 11.323C48.302 69.865 43.302 72 34.115 72h-4.396l-1.396 8H21.26zm56 0h14.218c6.782 0 10.886 4.541 9.282 11.323C104.302 69.865 99.302 72 90.115 72h-4.396l-1.396 8H77.26zM32.719 56l-2.01 10.667h4.562c3.948 0 7.614-.448 8.229-6.334.23-2.28-.719-4.333-5.281-4.333zm56 0l-2.01 10.667h4.562c3.948 0 7.614-.448 8.229-6.334.23-2.28-.719-4.333-5.281-4.333z"/></svg>