<svg xmlns="http://www.w3.org/2000/svg" data-name="Layer 1" viewBox="0 0 128 128"><path fill="#365ba2" d="M93.102 0a45.855 45.855 0 00-11.48 1.715 54.154 54.154 0 0111.771 7.176c4.597 4.013 7.176 8.038 11.772 14.642a23.92 23.92 0 013.15 6.592 23.828 23.828 0 01.864 7.467 69.803 69.803 0 01-.583 8.318 16.006 16.006 0 01-.56 3.454 2.117 2.117 0 01-.292 1.143 10.617 10.617 0 00.291 3.162c0 1.143.28 2.298.28 4.305a34.038 34.038 0 01-.28 9.462v1.155a23.227 23.227 0 01-2.59 7.456c.292.583.572.863.863 1.435a45.42 45.42 0 003.723-6.301 105.39 105.39 0 006.895-15.786 145.69 145.69 0 004.876-16.94c2.007-8.61 2.299-12.624 1.436-17.22a15.053 15.053 0 00-2.007-6.604c-3.162-5.74-8.039-8.319-11.48-10.045A39.007 39.007 0 0093.102 0zM30.924 1.267A25.54 25.54 0 0019.05 3.722a22.41 22.41 0 00-9.182 7.175c-2.298 2.87-4.014 7.176-4.877 12.053-.863 4.305-1.155 9.485.572 19.239 1.143 6.883 2.298 11.48 4.596 20.942.292 1.155 2.007 6.324 5.74 17.804l.28.572a29.84 29.84 0 006.032 10.617c2.579 2.87 4.877 4.597 6.895 4.597h.56c3.733 0 6.323-2.87 8.61-5.169 0-.291 5.46-6.884 7.467-9.182-.292-.291-.852-.291-1.144-.583a23.1 23.1 0 01-8.038-8.61 24.639 24.639 0 01-2.59-15.785l.291-4.866a66.849 66.849 0 01.583-22.68c1.144-6.313 2.579-12.625 7.736-19.228a27.282 27.282 0 015.74-5.74 41.82 41.82 0 00-14.35-3.442c-.93-.08-1.95-.147-3.048-.17zM66.98 3.722a21.394 21.394 0 00-4.305.292 26.128 26.128 0 00-15.495 9.753c-4.305 5.46-5.449 10.618-6.592 16.65a51.235 51.235 0 00-.875 6.603 18.243 18.243 0 017.467-4.025c2.007-.572 7.175-2.287 11.48.291 1.435.864 3.442 2.59 5.449 7.467 4.305 12.052.01 24.396-.56 25.54a11.211 11.211 0 01-1.156 2.578 30.917 30.917 0 00-1.714 4.889 38.317 38.317 0 00-.583 5.74 4.592 4.592 0 012.578.852c1.435 1.435 1.727 3.453 2.018 4.305a140.669 140.669 0 01.572 16.077c0 4.597 0 8.902.28 11.772.583 6.604 2.59 11.19 5.46 13.487 2.007 1.727 4.586 1.716 6.02 2.007h.583c4.305 0 11.19-2.87 13.768-6.883a19.454 19.454 0 002.59-7.176c.291-1.726.28-2.578.571-4.305 0-.863.292-2.298.292-4.014a39.825 39.825 0 01.572-5.18c.291-4.876 1.143-10.605 1.435-13.767a18.138 18.138 0 013.442-8.902c-2.007-.291-4.014-2.007-5.158-4.877-1.726-3.161-2.018-4.025-2.309-5.46-.28-1.143-.852-2.578-2.87-6.884-4.305-9.754-4.866-12.624-4.866-14.922-.291-3.162-.583-7.455 2.87-10.326a15.985 15.985 0 0115.203-3.161v-.583a14.306 14.306 0 00-2.579-5.157c-4.304-6.604-6.603-10.046-10.628-13.487A41.102 41.102 0 0077.608 5.74 34.912 34.912 0 0066.98 3.722zM98.708 37.38a9.41 9.41 0 00-7.041 2.231c-1.144 1.144-1.144 3.442-.852 5.449 0 1.435.28 3.442 4.585 13.207a53.976 53.976 0 012.87 7.175c.292 1.143.572 1.715 2.299 4.866a5.987 5.987 0 001.143 1.726c.572-.863.863-2.298 1.144-4.596l.291-.852c.572-2.58.292-4.597.292-8.039 0-1.727-.292-2.87-.292-3.733a20.001 20.001 0 01-.291-4.306c-.572-.863-.572-1.143-.28-1.726 0-.572.28-1.424.571-3.15a50.502 50.502 0 00.583-6.604c-.583-.291-.863-.571-1.435-.852a12.164 12.164 0 00-3.587-.796zm-44.88 1.132a13.081 13.081 0 00-5.213.807c-3.161.864-5.157 2.87-6.592 4.014a26.522 26.522 0 00-2.59 2.87 42.218 42.218 0 00.572 6.032v.291l-.572 5.74a17.293 17.293 0 002.007 12.333 15.045 15.045 0 006.032 6.603 20.147 20.147 0 006.592 2.59 46.195 46.195 0 01.583-6.323 20.957 20.957 0 012.007-6.032 8.607 8.607 0 011.154-2.287c.28-.863 4.294-11.772.561-21.817-.852-2.298-1.715-3.733-2.87-4.305a4.22 4.22 0 00-1.67-.516zm42.11 1.637a2.599 2.599 0 011.76.314c.864.572-.29 2.007-.582 2.298a4.308 4.308 0 01-1.716 1.155c-1.144.28-2.007-.583-2.298-.583-.292-.292-1.144-1.144-.852-2.007.28-.572.571-.572 1.715-.863a8.15 8.15 0 011.973-.314zm-43.14 2.377a6.048 6.048 0 012.42.515c.864.292 1.716.583 1.716 1.155.292.863-.56 1.435-.852 1.716a3.684 3.684 0 01-2.298.874 3.366 3.366 0 01-2.87-1.727 1.25 1.25 0 01-.28-1.435 1.524 1.524 0 011.143-.863 3.258 3.258 0 011.02-.235zm52.648 37.547c-1.435 2.006-3.442 4.596-3.734 8.038a2.554 2.554 0 01-.291 1.435 16.08 16.08 0 006.323.292 16.297 16.297 0 008.319-3.453c2.007-1.436 4.596-4.306 4.013-5.45-.28-.571-1.143-.29-5.74 0-1.143 0-4.585.864-6.883.292h-.572a2.942 2.942 0 01-1.435-1.154zm-49.947 5.74a12.99 12.99 0 01-1.996 2.006 24.804 24.804 0 01-8.05 3.162c-2.578.863-4.013.863-4.013 1.726-.292 1.144 2.578 2.58 4.013 3.15a17.079 17.079 0 0010.629.572 38.277 38.277 0 003.442-1.726 66.058 66.058 0 00-.572-8.32v-.29h-.292a12.67 12.67 0 01-3.16-.28z"/></svg>