<svg xmlns="http://www.w3.org/2000/svg" data-name="Layer 1" viewBox="0 0 128 128"><path fill="#0277bd" d="M65.63.002a72.386 72.386 0 00-13.257 1.236C39.41 3.494 37.05 8.234 37.05 16.968v13.349h30.315v6.736h-46.12c-8.878 0-16.65 4.184-19.111 14.211C-.65 62.774-.773 69.982 2.134 82 4.34 90.963 9.2 97.683 18.083 97.683h12.234V80.491c0-9.99 9.047-19.86 19.415-19.86h24.373c8.498 0 16.842-6.272 16.842-14.743v-28.92c0-8.215-5.925-14.36-14.208-15.737A57.316 57.316 0 0065.63.001zM48.843 13.475a5.053 5.053 0 110 10.105 5.053 5.053 0 110-10.105z"/><path fill="#ffc107" d="M62.366 127.999a72.386 72.386 0 0013.258-1.237c12.962-2.256 15.323-6.996 15.323-15.73V97.683H60.632v-6.736h46.122c8.88 0 16.65-4.184 19.112-14.211 2.783-11.51 2.907-18.718 0-30.736-2.21-8.964-7.07-15.683-15.952-15.683H97.68v17.192c0 9.99-9.047 19.86-19.415 19.86H53.892c-8.499 0-16.842 6.272-16.842 14.743v28.92c0 8.216 5.925 14.36 14.208 15.737A57.315 57.315 0 0062.366 128zm16.792-13.474a5.053 5.053 0 110-10.105 5.053 5.053 0 110 10.105z"/></svg>