<svg xmlns="http://www.w3.org/2000/svg" id="Layer_1" data-name="Layer 1" viewBox="0 0 128 128"><defs><style>.cls-2{fill:#629a31}.cls-3{fill:#7aa52a}</style></defs><path fill="#88ab27" d="M5.614 42.564a53.551 53.551 0 0110.98-20.365C26.988 9.92 40.12 3.331 55.38 1.417c15.56-1.952 30.271.841 43.674 9.771 12.514 8.338 20.735 20.203 24.588 35.462a4.253 4.253 0 01.219 2.354c-8.376.546-16.762.373-25.146.402-4.163-14.57-16.533-25.413-30.704-26.614-15.507-1.314-27.378 5.3-35.715 19.277-.198.333-.433.642-.65.962-.52-.719-1.264-.453-1.92-.456q-6.758-.032-13.515-.006a27.13 27.13 0 00-4.303.139 14.453 14.453 0 01-6.295-.144z"/><path d="M27.743 70.349c2.776 13.761 9.978 23.82 22.042 29.634a31.955 31.955 0 0020.778 2.62 3.07 3.07 0 013.292 1.082q6.907 7.559 14.004 14.917c1.074 1.118.956 1.498-.395 2.014a64.87 64.87 0 01-30.365 4.003c-12.793-1.354-24.397-6.015-34.303-14.918C11.566 99.61 4.99 86.721 3.07 71.151a8.904 8.904 0 012.007-.386c7.562.28 15.107-.518 22.666-.416z" class="cls-2"/><path d="M98.716 49.406c8.384-.029 16.77.144 25.146-.403 1.09 2.351 1.138 4.982 1.354 7.463a65.215 65.215 0 01-6.324 35.196c-.233.47-.515.91-.768 1.355-.707-.21-1.057-.805-1.493-1.27-5.283-5.636-10.53-11.312-15.859-16.898a3.278 3.278 0 01-.975-3.304 45.005 45.005 0 00-1.08-22.139z" class="cls-3"/><path fill="#f0913c" d="M75.98 95.347c-2.669-2.722-5.373-5.406-8-8.174-4.507-4.752-8.96-9.564-13.454-14.33a3.214 3.214 0 01-1.067-2.415q.08-7.737.002-15.475c-.011-1.195.277-1.638 1.464-1.624 5.203.061 10.407.034 15.61.018a2.095 2.095 0 011.684.679Q82.502 65.058 92.803 76.07a1.907 1.907 0 01.24.535c-5.037.036-10.075.056-15.112.127-.612.009-1.4-.412-1.815.509z"/><path d="M75.98 95.347l.136-18.105c1.098.98 2.266 1.885 3.286 2.951q12.017 12.568 23.984 25.19c2.322 2.444 4.485 5.082 6.96 7.33 2.349 2.134 4.111 4.852 6.473 6.927a67.38 67.38 0 017.069 7.44q-8.73.042-17.46.094a1.878 1.878 0 01-1.48-.68q-14.348-15.32-28.71-30.623a2.054 2.054 0 01-.257-.525z" class="cls-2"/><path fill="#7cab53" d="M123.887 127.08a67.38 67.38 0 00-7.068-7.44c-2.362-2.075-4.124-4.793-6.473-6.927-2.475-2.248-4.638-4.886-6.96-7.33q-11.979-12.61-23.985-25.19c-1.02-1.066-2.187-1.972-3.286-2.952.416-.92 1.204-.5 1.816-.508 5.037-.07 10.075-.09 15.112-.127.723.023 1.065.655 1.498 1.112q14.265 15.054 28.535 30.101a4.098 4.098 0 011.205 3.162c-.06 4.76-.007 9.521-.042 14.282-.004.601.36 1.349-.352 1.817z"/><path d="M27.743 70.349c-7.559-.102-15.104.696-22.667.416a8.904 8.904 0 00-2.006.387c-1.168-9.734-.645-19.297 2.544-28.588a14.453 14.453 0 006.295.144 27.13 27.13 0 014.303-.14q6.757-.02 13.515.007c.656.003 1.4-.263 1.92.456a45.647 45.647 0 00-3.904 27.318z" class="cls-3"/></svg>