<svg xmlns="http://www.w3.org/2000/svg" data-name="Layer 1" viewBox="0 0 128 128"><path fill="#e55b2d" d="M72.394 20.384v19.385l33.574 19.386V39.769zM5.243 39.769v19.386l16.786 9.69V49.462zm50.36 9.693l-16.787 9.693v58.152L55.605 127V88.23l16.789 9.694V78.538l-16.79-9.693z"/><path fill="#ed8e24" d="M72.394 20.384L22.03 49.462v19.383l33.575-19.383v19.383l16.789-9.69zm50.363 9.692l-16.79 9.693v19.386l16.79-9.693zM89.18 68.846l-16.787 9.692v19.386L89.18 88.23zM72.394 97.923l-16.79-9.693V127l16.79-9.693z"/><path fill="#f8bf3c" d="M72.394 1L5.243 39.77l16.786 9.692 50.364-29.079 33.574 19.386 16.789-9.693zm0 58.155l-16.79 9.69 16.79 9.693 16.787-9.693z"/></svg>