<svg xmlns="http://www.w3.org/2000/svg" data-name="Layer 1" viewBox="0 0 128 128"><path fill="#03a9f4" d="M110.567 50.925c1.136-5.041-.268-10.983-7.264-17.433-11.373 10.294-8.121 20.998-4.359 26.15 0 0-.482 2.905-11.622 2.905H.155s-5.326 46.49 46.489 46.49c45.307 0 58.033-34.876 60.517-43.805a24.193 24.193 0 0 0 3.406.22c6.238-.049 14.324-3.402 17.433-15.933-8.246-2.856-13.543-1.564-17.433 1.406z"/><path fill="#81d4fa" d="M51.909 108.856c-2.673-.935-14.737-3.167-16.887-20.159a45.096 45.096 0 0 1-27.833 2.93c6.282 9.381 17.928 17.41 39.455 17.41 1.81 0 3.556-.07 5.265-.18z"/><path fill="#fff" d="M46.644 79.98a5.811 5.811 0 1 0 5.811 5.812 5.811 5.811 0 0 0-5.811-5.811z"/><path fill="#37474f" d="M37.677 90.432a2.783 2.783 0 0 1-1.481 3.83 82.822 82.822 0 0 1-24.108 3.201 35.382 35.382 0 0 1-4.812-5.703c7.511 0 19.497-.349 26.569-2.807a2.989 2.989 0 0 1 3.832 1.479zm6.061-4.64a2.906 2.906 0 1 0 2.906-2.906 2.907 2.907 0 0 0-2.906 2.906z"/><path fill="#01579b" d="M26.305 62.547H11.777V48.02h14.528zM55.361 48.02H40.833v14.528H55.36zm29.055 0H69.89v14.528h14.527zM40.833 33.492H26.305v14.527h14.528zm29.056 0H55.36v14.527h14.528z"/><path fill="#0288d1" d="M40.833 62.547H26.305V48.02h14.528zM69.889 48.02H55.36v14.528h14.528zm0-29.055H55.36v14.528h14.528zM55.36 33.492H40.833v14.527H55.36z"/></svg>