<svg id="Layer_1" data-name="Layer 1" xmlns="http://www.w3.org/2000/svg" width="128" height="128" viewBox="0 0 128 128"><defs><style>.cls-1{fill:#d94648;}.cls-2{fill:#fefefe;}</style></defs><path class="cls-1" d="M88.514,71.747c-.079.6879-.1511,1.3191-.2238,1.95q-.2311,2.0068-.4628,4.0137-.2282,1.9827-.4557,3.9657-.2313,2.0067-.464,4.0134-.2532,2.1992-.5048,4.3984-.23,1.9947-.4622,3.9893c-.0474.4085-.1.8165-.1412,1.2257a.5728.5728,0,0,1-.2595.39,6.2076,6.2076,0,0,1-1.6135.8659,34.5735,34.5735,0,0,1-5.8685,1.69,66.4683,66.4683,0,0,1-7.6753,1.1293,74.48,74.48,0,0,1-8.9484.2639,69.751,69.751,0,0,1-6.9691-.552A55.0184,55.0184,0,0,1,45.78,97.3309a16.4455,16.4455,0,0,1-3.39-1.3292c-.0492-.0275-.0969-.0578-.1453-.0868a1.0807,1.0807,0,0,1-.6078-.9328c-.0819-1.2792-.2316-2.554-.3542-3.8307q-.2106-2.1918-.42-4.3838c-.1366-1.4374-.2693-2.8751-.4063-4.3125s-.2782-2.8741-.4157-4.3113c-.0821-.8586-.16-1.7174-.24-2.5752.0193-.0077.0383-.0216.0452-.0171a3.5089,3.5089,0,0,0,3.3789.2424,11.3419,11.3419,0,0,0,3.2425-2.0815,24.549,24.549,0,0,0,1.9745-1.9274c.054-.0583.1036-.1207.1805-.2107a.4559.4559,0,0,1-.0471.3087c-.5693,1.7719-1.1391,3.5435-1.6033,5.3469a4.2334,4.2334,0,0,0-.0679,1.7053.7833.7833,0,0,0,1.331.5313,3.17,3.17,0,0,0,1.0381-1.6812c.5764-1.9549,1.1547-3.9094,1.713-5.87.6054-2.1254,1.3763-4.1929,2.1352-6.2656a8.6239,8.6239,0,0,0,.5474-2.9343,1.0581,1.0581,0,0,0-1.2668-1.1777,1.3375,1.3375,0,0,0-.8927.53,2.2711,2.2711,0,0,0-.352.6849c-.3212.963-.67,1.9178-.9573,2.8908A7.2828,7.2828,0,0,1,48.9957,67.97a20.8072,20.8072,0,0,1-3.8616,4.0225,6.5327,6.5327,0,0,1-1.5722.9418,2.0141,2.0141,0,0,1-.8256.1566,1.2707,1.2707,0,0,1-1.1043-.7871,3.6636,3.6636,0,0,1-.3476-1.5454,10.4691,10.4691,0,0,1,.3487-3.1634,27.6566,27.6566,0,0,1,5.415-10.7565,9.5645,9.5645,0,0,1,2.43-2.1645,3.1767,3.1767,0,0,1,1.4282-.489,2.2136,2.2136,0,0,1,2.02,1.0194c.2544.3457.4361.7347.6629,1.0967a5.1016,5.1016,0,0,0,.6076.8426.9736.9736,0,0,0,1.5538-.0578,2.1119,2.1119,0,0,0,.3387-1.6583,2.0769,2.0769,0,0,0-.3949-1,7.1822,7.1822,0,0,0-1.9552-2.0245,4.9753,4.9753,0,0,0-5.0052-.284,12.3118,12.3118,0,0,0-4.0516,3.0885,26.3458,26.3458,0,0,0-4.5536,7.21,28.4413,28.4413,0,0,0-1.1642,3.1236.4534.4534,0,0,1-.1015.2286L35.4633,34.4787a11.8055,11.8055,0,0,0,1.342.561A31.9835,31.9835,0,0,0,41.79,36.2c1.6864.2825,3.3833.4891,5.0836.6638,1.4522.1492,2.9077.264,4.3643.366,2.7458.1922,5.495.3062,8.2462.3663,2.2271.0487,4.4549.0741,6.6828.0414,2.2838-.0335,4.5673-.0831,6.849-.1878,2.37-.1087,4.737-.2579,7.0986-.483a73.5717,73.5717,0,0,0,8.21-1.1568,17.0834,17.0834,0,0,0,4.0537-1.2525c.1544-.0757.1747-.03.1586.1172-.1105,1.01-.2157,2.0209-.3242,3.0312q-.2053,1.9125-.4131,3.8247-.2316,2.141-.4638,4.2816-.2031,1.8764-.4056,3.7526-.2353,2.177-.4709,4.3538-.2011,1.8642-.4013,3.7286-.2337,2.165-.4689,4.33-.2261,2.0928-.45,4.1857-.1263,1.1788-.2476,2.3581a.3227.3227,0,0,1-.1191.226c-1.5472,1.3443-3.0647,2.7243-4.7134,3.9473a4.9586,4.9586,0,0,1-.9484.5778.9648.9648,0,0,1-.517.0882.3883.3883,0,0,1-.3084-.6309,11.6512,11.6512,0,0,1,.9219-1.1212,28.64,28.64,0,0,0,2.6705-3.4374,7.3656,7.3656,0,0,0,.8889-1.872,2.0987,2.0987,0,0,0-1.8231-2.8233,3.7875,3.7875,0,0,0-2.6756.5992,12.6054,12.6054,0,0,0-2.697,2.2287c-.0489.0506-.0812.1218-.1773.1452.0833-.4341.173-.8577.2207-1.2888a.94.94,0,0,0-1.1-1.1549.92.92,0,0,0-.652.4168,6.4713,6.4713,0,0,0-.8828,1.6863q-.3867.9783-.6743,1.9907a1.4259,1.4259,0,0,1-.4311.7185c-.5411.4833-1.045,1.0089-1.5912,1.4883a22.1825,22.1825,0,0,1-2.6281,2.0571,5.825,5.825,0,0,1-.893.4816,1.5951,1.5951,0,0,1-.5111.1382c-.3253.0215-.4623-.0923-.4856-.422a2.6776,2.6776,0,0,1,.1269-.9545c.3426-1.1531.8284-2.2528,1.2742-3.3666,1.6167-4.04,3.2335-8.0792,4.99-12.0611a6.152,6.152,0,0,0,.4116-1.057,1.1453,1.1453,0,0,0-1.0725-1.5516,1.52,1.52,0,0,0-1.3026.67,2.235,2.235,0,0,0-.2574.4917c-2.0444,5.1871-4.1331,10.3567-6.1415,15.5579a9.37,9.37,0,0,0-.4126,1.3132.5526.5526,0,0,1-.22.3289,6.8356,6.8356,0,0,1-2.02,1.17,1.7441,1.7441,0,0,1-.6163.1081.5278.5278,0,0,1-.5794-.5907,7.1145,7.1145,0,0,1,.4158-2.2251c.425-1.3652,1.0512-2.65,1.5951-3.9677a7.5042,7.5042,0,0,0,.5282-1.5269A1.39,1.39,0,0,0,66.289,63.9a.9943.9943,0,0,0-1.642-.1279,3.3516,3.3516,0,0,0-.5516.9337q-.2071.5154-.3892,1.0409a17.3731,17.3731,0,0,1-2.9549,5.376,6.5689,6.5689,0,0,1-1.352,1.2406,3.0315,3.0315,0,0,1-1.3365.5258c-.6605.0887-.96-.2032-.9144-.8791a9.9357,9.9357,0,0,1,.8761-3.1773c.4586-1.0943,1.0478-2.1246,1.58-3.1827a6.2215,6.2215,0,0,0,.34-.7475,1.034,1.034,0,0,0-.9973-1.4759,1.4681,1.4681,0,0,0-1.3875.7642,12.06,12.06,0,0,0-.695,1.4083,38.4234,38.4234,0,0,0-2.3788,6.3264,4.7192,4.7192,0,0,0-.1813,2.29,1.9669,1.9669,0,0,0,1.8421,1.6108A5.519,5.519,0,0,0,60.43,74.28a8.61,8.61,0,0,0,1.509-1.79.5436.5436,0,0,1,.1735-.1848c-.0416.2856-.094.57-.1225.8568a4.4234,4.4234,0,0,0,.06,1.6353,1.3906,1.3906,0,0,0,1.529,1.0533,5.5039,5.5039,0,0,0,2.314-.8579,9.0332,9.0332,0,0,0,1.1016-.7449c.1235-.0974.1621-.0789.1947.0724a1.8,1.8,0,0,0,2.0837,1.5325,6.1088,6.1088,0,0,0,2.967-1.2016,15.93,15.93,0,0,0,1.95-1.5885c.0632-.0586.1111-.1407.21-.1571.0313.0986-.0332.1715-.0669.2492-.9719,2.2406-2.0479,4.4335-3.0456,6.6621a10.9671,10.9671,0,0,0-.87,2.455,2.3344,2.3344,0,0,0-.018.6756.91.91,0,0,0,.8777.8724,1.63,1.63,0,0,0,1.5534-.6471,4.2374,4.2374,0,0,0,.6926-1.3215,92.7662,92.7662,0,0,1,3.8031-9.3807,16.31,16.31,0,0,1,3.4439-4.9041,5.0932,5.0932,0,0,1,2.07-1.2995,2.0672,2.0672,0,0,1,.7418-.0788.442.442,0,0,1,.4406.6138,2.609,2.609,0,0,1-.3947.7982c-.6489.9777-1.4363,1.8462-2.1738,2.754a16.6565,16.6565,0,0,0-1.8631,2.6183,2.2707,2.2707,0,0,0-.2751,1.5628,1.7273,1.7273,0,0,0,1.5761,1.2907,5.62,5.62,0,0,0,3.7713-.9315A20.4382,20.4382,0,0,0,87.5727,72.61C87.8722,72.3411,88.1665,72.066,88.514,71.747Z"/><path class="cls-1" d="M43.08,97.8c.6131.2349,1.169.4411,1.7345.62a48.7685,48.7685,0,0,0,5.9382,1.4353q2.1891.4016,4.3994.6566,1.9945.2334,4,.3524c1.9258.1155,3.8534.1729,5.7825.1343,2.2348-.0448,4.4645-.1725,6.6882-.4111a63.7586,63.7586,0,0,0,8.9455-1.5653,28.3962,28.3962,0,0,0,3.66-1.1593c.0484-.02.0955-.0676.16-.0287.0057.0867-.0552.1459-.0932.2125Q82.7,100.84,81.1,103.6307a1.3425,1.3425,0,0,0-.186.6141q-.1253,2.3325-.2586,4.6644-.1815,3.1533-.3687,6.3064c-.0886,1.5385-.1717,3.0773-.2588,4.6159-.08,1.41-.1577,2.8194-.2452,4.2286a1.4024,1.4024,0,0,1-.4918.9176,5.734,5.734,0,0,1-1.8786,1.1208,20.5619,20.5619,0,0,1-4.046,1.1174,48.56,48.56,0,0,1-7.2117.7444,58.9363,58.9363,0,0,1-6.5074-.1173,36.0338,36.0338,0,0,1-7.758-1.2968,9.1263,9.1263,0,0,1-2.8638-1.3125,1.9407,1.9407,0,0,1-.8253-1.5573c-.0933-1.6992-.24-3.3954-.3644-5.0929q-.1544-2.112-.3058-4.224-.1839-2.51-.3711-5.02-.1311-1.7859-.2583-3.5723c-.0359-.4989-.073-.9977-.1033-1.4969a.7911.7911,0,0,0-.1444-.3536q-1.71-2.9227-3.4218-5.8445C43.1905,98.0033,43.1532,97.9325,43.08,97.8Z"/><path class="cls-1" d="M63.9744,36.3066c-2.3977.0167-4.7944-.0348-7.19-.1168-2.3145-.0792-4.6272-.2029-6.9359-.3859-2.7577-.2185-5.5094-.4952-8.2386-.9584a27.4106,27.4106,0,0,1-4.6489-1.11,5.992,5.992,0,0,1-1.079-.4844,3.2336,3.2336,0,0,1-.3989-.2724.7429.7429,0,0,1,.0043-1.3078,5.7061,5.7061,0,0,1,1.89-.8951,31.1672,31.1672,0,0,1,4.5232-1.0172q1.8492-.308,3.7134-.5063c1.2588-.1355,2.52-.2518,3.7811-.3631,1.6315-.1441,3.2668-.2349,4.9023-.32q1.2209-.0637,2.4428-.1063c3.6309-.1241,7.2628-.143,10.8952-.0926q1.3192.0185,2.6376.0773c.2241.01.3023-.0589.3558-.2667q1.4985-5.8287,3.0085-11.6543a.9046.9046,0,0,1,.223-.4171Q81.3789,8.2045,88.8872.29a.8388.8388,0,0,1,.8516-.25,2.8143,2.8143,0,0,1,.8536.33,5.87,5.87,0,0,1,2.0362,1.9628,3.2291,3.2291,0,0,1,.1971.3872.65.65,0,0,1-.1475.8056q-7.0369,7.41-14.06,14.8335a.7438.7438,0,0,0-.1982.3486q-1.1963,4.8705-2.4051,9.7378c-.0434.175-.0513.2553.1806.2713,1.376.0951,2.7518.198,4.1256.3219,1.67.1506,3.3364.3469,4.995.5994a37.463,37.463,0,0,1,4.8261.9939,9.3325,9.3325,0,0,1,1.8468.7088,2.139,2.139,0,0,1,.7388.5751.63.63,0,0,1-.0015.8243,2.1574,2.1574,0,0,1-.7818.5975,12.7934,12.7934,0,0,1-2.8794.9691,52.7215,52.7215,0,0,1-5.7648.9825c-2.8112.3493-5.6328.5723-8.46.73-2.2.1228-4.4013.1984-6.604.25C66.8153,36.3015,65.3948,36.2953,63.9744,36.3066Zm5.4236-3.37a1.2067,1.2067,0,0,0-.5431.2475c-.2629.2014-.2627.4063-.0046.6108a1.86,1.86,0,0,0,.6978.3214,10.6184,10.6184,0,0,0,4.6021.1206,2.8407,2.8407,0,0,0,1.1506-.4154c.3015-.2088.3-.44.0069-.6569a1.122,1.122,0,0,0-.4078-.1977c-.0054.3807-.2967.46-.5776.5507-.0306.01-.0622.0168-.0935.0242a10.2389,10.2389,0,0,1-3.2934.1642,4.3722,4.3722,0,0,1-1.3188-.2785C69.42,33.3453,69.2446,33.2371,69.398,32.937Z"/><polygon class="cls-1" points="62.134 72.207 62.137 72.223 62.126 72.221 62.134 72.207"/><path class="cls-1" d="M74.4487,72.8532l-.0148.0132c-.0037-.0055-.0108-.0114-.01-.0163s.0089-.0089.0138-.0133Z"/><path class="cls-2" d="M69.398,32.937c-.1534.3.0219.4083.2186.4909a4.3722,4.3722,0,0,0,1.3188.2785,10.2389,10.2389,0,0,0,3.2934-.1642c.0313-.0074.0629-.0143.0935-.0242.2809-.09.5722-.17.5776-.5507a1.122,1.122,0,0,1,.4078.1977c.2928.2166.2946.4481-.0069.6569a2.8407,2.8407,0,0,1-1.1506.4154,10.6184,10.6184,0,0,1-4.6021-.1206,1.86,1.86,0,0,1-.6978-.3214c-.2581-.2045-.2583-.4094.0046-.6108A1.2067,1.2067,0,0,1,69.398,32.937Z"/></svg>