<svg xmlns="http://www.w3.org/2000/svg" data-name="Layer 1" viewBox="0 0 128 128"><path fill="#e53f2e" d="M31.108 19.903a2.508 2.508 0 0 0-.32.035l-27.72 5.044a2.52 2.52 0 0 0-1.78 3.647l30.238 57.958a2.52 2.52 0 0 0 2.909 1.26l27.212-7.56 15.287 26.548a2.52 2.52 0 0 0 3.061 1.107l42.853-15.838a2.52 2.52 0 0 0 1.211-3.78l-14.475-21.35 15.568-4.326a2.52 2.52 0 0 0 1.403-3.858L112.7 38.694a2.52 2.52 0 0 0-2.717-1.004L91.08 42.666a2.52 2.52 0 0 0-1.447 3.849l11.851 17.482-37.415 10.39-30.647-53.224a2.52 2.52 0 0 0-2.313-1.26zm-1.167 5.31L59.053 75.78 35.05 82.45 7.34 29.328zm79.614 17.798l10.837 15.73-13.785 3.834-10.808-15.942zm-5.094 25.386l13.623 20.095-37.843 13.988-13.579-23.585z"/></svg>