<svg xmlns="http://www.w3.org/2000/svg" data-name="Layer 1" viewBox="0 0 128 128"><path fill="#0288d1" d="M124.98 108.041a16.936 16.936 0 0 1-16.939 16.939H19.96A16.939 16.939 0 0 1 3.02 108.041V19.96A16.939 16.939 0 0 1 19.959 3.02h88.082a16.936 16.936 0 0 1 16.939 16.939z"/><path fill="#fff" d="M23.347 47.061h16.939v57.592h-16.94zm8.418-6.775h-.095a8.105 8.105 0 0 1-8.324-8.473 8.15 8.15 0 0 1 8.517-8.466c5.153 0 8.327 3.659 8.422 8.466a8.156 8.156 0 0 1-8.52 8.473zm72.888 64.367H87.714V73.828c0-7.446-4.15-12.528-10.813-12.528-5.085 0-7.836 3.428-9.171 6.742-.488 1.185-.342 4.465-.342 6.121v30.49h-16.94V47.061h16.94v8.863c2.442-3.781 6.267-8.863 16.051-8.863 12.122 0 21.21 7.623 21.21 24.643l.004 32.95z"/></svg>