<svg xmlns="http://www.w3.org/2000/svg" data-name="Layer 1" viewBox="0 0 128 128"><path fill="#43a047" d="M119.5 95.806V32.197L64 .39 8.5 32.197v63.609L64 127.61l55.5-31.804z"/><path fill="#fff" d="M88.829 31.216a7.301 7.301 0 0 0-7.303 7.302v32.938L49.348 35.46l-.383-.444c-3.633-3.981-7.787-3.8-9.794-3.8a7.302 7.302 0 0 0-7.303 7.303v49.657a7.303 7.303 0 0 0 14.606 0v-33.18L79.417 91.88l.322.415c3.598 3.572 8.491 3.184 9.09 3.184a7.302 7.302 0 0 0 7.302-7.303V38.518a7.302 7.302 0 0 0-7.302-7.302z"/></svg>