<svg xmlns="http://www.w3.org/2000/svg" data-name="Layer 1" viewBox="0 0 128 128"><path fill="#00c58e" d="M73.076 42.138l-4.39 7.727-15.01-26.434L7.599 104.57h31.199a7.665 7.665 0 0 0 7.6 7.728H7.599a7.577 7.577 0 0 1-6.581-3.865 7.84 7.84 0 0 1 0-7.727l46.078-81.14a7.538 7.538 0 0 1 13.164 0z"/><path fill="#2f495e" d="M106.338 100.706l-28.873-50.84-4.39-7.728-4.388 7.727-28.87 50.84a7.84 7.84 0 0 0 0 7.728 7.577 7.577 0 0 0 6.58 3.864H99.75a7.58 7.58 0 0 0 6.583-3.863 7.84 7.84 0 0 0 0-7.728zm-59.941 3.864l26.679-46.977 26.673 46.977z"/><path fill="#108775" d="M126.982 108.433a7.577 7.577 0 0 1-6.58 3.864H99.749a7.665 7.665 0 0 0 7.6-7.727h13.037L83.393 39.422l-5.928 10.442-4.39-7.727 3.737-6.578a7.538 7.538 0 0 1 13.164 0l37.006 65.146a7.84 7.84 0 0 1 0 7.727z"/></svg>