<svg xmlns="http://www.w3.org/2000/svg" data-name="Layer 1" viewBox="0 0 128 128"><path fill="#cf649a" d="M109.69 71.1a25.92 25.92 0 0 0-11.475 2.693c-1.187-2.368-2.375-4.437-2.572-5.983a16.674 16.674 0 0 1-.223-5.035 40.594 40.594 0 0 1 1.508-5.434c-.025-.225-.272-1.322-2.82-1.347s-4.748.499-4.996 1.172a28.803 28.803 0 0 0-1.062 3.814c-.445 2.343-5.095 10.644-7.741 15.007a15.377 15.377 0 0 1-1.757-4.388 16.673 16.673 0 0 1-.222-5.035 40.626 40.626 0 0 1 1.508-5.434c-.024-.224-.272-1.321-2.819-1.346s-4.749.498-4.996 1.171-.52 2.268-1.063 3.814c-.52 1.546-6.703 15.406-8.31 19.02-.817 1.845-1.534 3.316-2.053 4.313s-.025.074-.075.174l-.692 1.321v.025c-.346.624-.717 1.222-.89 1.222a8.377 8.377 0 0 1 .05-3.964c.914-4.811 3.14-12.314 3.116-12.588 0-.125.42-1.446-1.435-2.12a2.243 2.243 0 0 0-2.597.45c-.148 0-.272.398-.272.398s2.003-8.45-3.833-8.45c-3.66 0-8.706 4.014-11.204 7.678-1.583.873-4.947 2.717-8.508 4.687-1.36.748-2.77 1.545-4.106 2.268l-.272-.3C22.805 71.3 9.721 65.916 10.265 55.695c.198-3.714 1.484-13.51 25.129-25.377 19.366-9.722 34.873-7.054 37.569-1.121 3.833 8.475-8.286 24.23-28.418 26.498-7.667.873-11.699-2.119-12.713-3.24-1.063-1.172-1.212-1.222-1.607-.998-.643.35-.248 1.396 0 2.02.593 1.57 3.067 4.362 7.271 5.758 3.685 1.222 12.688 1.895 23.57-2.343C73.26 52.13 82.782 38.919 79.987 27.875c-2.844-11.242-21.344-14.931-38.83-8.675-10.413 3.74-21.691 9.573-29.804 17.226C1.708 45.5.174 53.426.817 56.717 3.068 68.458 19.12 76.111 25.55 81.77c-.322.174-.618.349-.89.498C21.444 83.865 9.202 90.32 6.135 97.15c-3.463 7.728.544 13.287 3.215 14.035 8.26 2.318 16.72-1.845 21.295-8.7 4.55-6.855 4.007-15.755 1.904-19.818l-.074-.15 2.523-1.496c1.632-.972 3.24-1.87 4.65-2.642a31.25 31.25 0 0 0-1.657 8.475c-.346 4.388 1.434 10.071 3.784 12.315a4.165 4.165 0 0 0 3.042.997c2.72 0 3.957-2.269 5.318-4.986 1.681-3.314 3.165-7.153 3.165-7.153s-1.855 10.395 3.215 10.395c1.855 0 3.71-2.418 4.551-3.665v.025s.05-.075.148-.25q.156-.231.297-.472v-.05c.742-1.297 2.4-4.263 4.873-9.174 3.19-6.332 6.257-14.259 6.257-14.259a45.809 45.809 0 0 0 1.212 5.135 49.328 49.328 0 0 0 2.646 5.983c-.742 1.047-1.187 1.646-1.187 1.646l.025.025a70.617 70.617 0 0 1-1.954 2.492c-2.523 3.042-5.54 6.507-5.936 7.504a2.064 2.064 0 0 0 .544 2.742 4.917 4.917 0 0 0 3.117.499 13.795 13.795 0 0 0 4.65-1.073 16.059 16.059 0 0 0 4.006-2.118 9.015 9.015 0 0 0 3.834-7.952 16.09 16.09 0 0 0-1.46-5.609c.223-.324.446-.648.668-.997a105.458 105.458 0 0 0 6.925-12.09 45.807 45.807 0 0 0 1.212 5.135 36.155 36.155 0 0 0 2.251 5.136 22.146 22.146 0 0 0-6.752 8.8c-1.46 4.237-.321 6.157 1.83 6.606a6.539 6.539 0 0 0 3.388-.698 15.31 15.31 0 0 0 4.28-2.219c2.472-1.845 4.847-4.412 4.723-7.877a15.203 15.203 0 0 0-1.063-4.663 23.922 23.922 0 0 1 12.267-1.42c11.006 1.296 13.183 8.226 12.763 11.118a7.44 7.44 0 0 1-3.488 4.985c-.766.474-1.014.649-.94.997.1.524.445.499 1.113.4a8.608 8.608 0 0 0 5.986-7.703c.296-6.856-6.159-14.335-17.61-14.26zM24.809 99.944c-3.636 4.013-8.755 5.533-10.932 4.237-2.35-1.37-1.435-7.279 3.042-11.541a58.237 58.237 0 0 1 8.583-6.457c.519-.324 1.31-.797 2.25-1.37a2.63 2.63 0 0 1 .248-.15c.173-.1.37-.225.568-.35a15.99 15.99 0 0 1-3.759 15.63zM51.396 81.72c-1.262 3.116-3.933 11.118-5.54 10.67-1.386-.375-2.226-6.432-.273-12.415a27.779 27.779 0 0 1 4.329-8.002c2.003-2.244 4.18-2.991 4.724-2.07.643 1.198-2.449 9.873-3.24 11.817zm21.938 10.57c-.544.274-1.04.474-1.262.324-.173-.1.223-.473.223-.473s2.745-2.967 3.833-4.338c.619-.797 1.36-1.72 2.152-2.767v.3c0 3.589-3.413 5.982-4.946 6.954zm16.917-3.889c-.396-.299-.346-1.221.989-4.113A15.4 15.4 0 0 1 95 79.402a6.208 6.208 0 0 1 .37 2.144c-.024 4.487-3.19 6.157-5.12 6.855z"/></svg>