<svg xmlns="http://www.w3.org/2000/svg" id="Layer_1" data-name="Layer 1" viewBox="0 0 128 128"><defs><style>.cls-1{fill:#1d78bf}.cls-2{fill:#8ed4f9}</style></defs><path d="M95.512 43.9l-6.089 3.516q-12.398 7.157-24.79 14.325a1.134 1.134 0 0 1-1.326.01q-15.089-8.745-30.2-17.45c-.236-.136-.47-.276-.703-.413.053-.246.276-.277.437-.365q15.276-8.409 30.553-16.815a.992.992 0 0 1 1.09-.027q15.304 8.434 30.62 16.847c.145.08.336.12.408.372zM66.204 99.398v-.645q0-16.015-.01-32.03a1.037 1.037 0 0 1 .595-1.048q15.088-8.681 30.157-17.396c.811-.469.814-.466.814.48q0 16.35.01 32.7a1.01 1.01 0 0 1-.576 1.054Q82.058 90.8 66.94 99.12a1.2 1.2 0 0 1-.736.277zM30.14 65.025l.001-16.39c0-.83.007-.835.736-.414q15.11 8.721 30.225 17.434a1.034 1.034 0 0 1 .608 1.04q-.023 15.979-.012 31.958c0 .86-.002.86-.756.446q-15.025-8.262-30.057-16.51a1.222 1.222 0 0 1-.76-1.25c.027-5.438.016-10.876.016-16.314z" class="cls-1"/><path d="M121.002 95.04c-3.293-1.904-6.532-3.778-9.772-5.649-2.77-1.6-5.534-3.208-8.32-4.78a1.166 1.166 0 0 1-.69-1.167q.024-18.694 0-37.388a1.247 1.247 0 0 1 .695-1.25q6.07-3.468 12.119-6.975 2.706-1.56 5.415-3.117c.182-.104.373-.356.58-.187.108.089.08.367.08.56q.005 6.926.003 13.853 0 22.567-.004 45.134a1.938 1.938 0 0 1-.106.966zM6.879 95.055V34.397c1.035.58 2.003 1.11 2.959 1.663 5.023 2.9 10.038 5.814 15.07 8.697a1.275 1.275 0 0 1 .739 1.28q-.028 18.69 0 37.381a1.213 1.213 0 0 1-.694 1.224q-7.488 4.282-14.949 8.612l-3.125 1.8zM66.39.766c.323.171.612.315.892.474q8.417 4.759 16.831 9.52 8.705 4.93 17.405 9.867 7.704 4.36 15.416 8.702c.476.268.954.53 1.429.798.334.188.452.337.011.59q-6.805 3.906-13.595 7.84c-1.353.78-2.714 1.547-4.059 2.34a.923.923 0 0 1-1.03.01q-6.414-3.541-12.841-7.06-5.574-3.063-11.142-6.135-4.53-2.492-9.067-4.97a.812.812 0 0 1-.473-.825q.013-10.278.011-20.556c0-.208-.113-.498.213-.595zM9.063 30.421L61.525.757c.272.217.16.485.16.71.007 6.777 0 13.554.018 20.33a1.093 1.093 0 0 1-.671 1.096q-13.338 7.312-26.66 14.651c-1.999 1.1-4.015 2.169-5.987 3.314a1.278 1.278 0 0 1-1.485-.145C21 37.301 15.094 33.9 9.063 30.421zM66.173 115.947c0-3.5.013-7.001-.013-10.502a1.144 1.144 0 0 1 .706-1.154q10.96-6.004 21.902-12.042c2.999-1.65 6.009-3.277 9.002-4.935a.804.804 0 0 1 .894.011q7.69 4.456 15.385 8.905c.88.51 1.765 1.01 2.644 1.519.232.134.603.205.624.476.024.295-.364.363-.583.487-2.411 1.377-4.836 2.73-7.253 4.098q-8.869 5.017-17.734 10.04-7.575 4.285-15.153 8.563-4.857 2.744-9.716 5.485c-.189.106-.373.342-.588.236-.235-.115-.111-.403-.111-.612q-.011-5.287-.006-10.575zM10.38 98.25c2.506-1.45 4.885-2.827 7.265-4.201 3.735-2.157 7.479-4.299 11.2-6.479a1.485 1.485 0 0 1 1.686-.068q9.361 5.203 18.754 10.35 5.961 3.283 11.931 6.55a.797.797 0 0 1 .483.81q-.017 10.797-.01 21.595c0 .098-.016.196-.037.436z" class="cls-2"/></svg>