<svg xmlns="http://www.w3.org/2000/svg" id="Layer_1" data-name="Layer 1" viewBox="0 0 128 128"><defs><style>.cls-2{fill:#01579b}</style></defs><path fill="#fff" d="M64 1.656a62.344 62.344 0 0 0-.029 124.688H64a62.344 62.344 0 1 0 .029-124.688z"/><path d="M14.002 64a49.997 49.997 0 0 0 28.18 45L18.328 43.65A49.817 49.817 0 0 0 14.002 64zm83.759-2.519c0-6.178-3.322-10.469-5.219-13.787-2.54-4.153-4.925-7.616-4.925-11.725 0-4.578 4.597-8.875 9.503-8.875.222 0 .422.018.644.025a49.994 49.994 0 0 0-74.55 7.972 4.97 4.97 0 0 0 1.91.121c5.215 0 13.324-.625 13.324-.625a2.062 2.062 0 0 1 .31 4.113s-2.7.328-5.713.475L51.58 94.731l10.937-32.815-8.134-22.65c-2.69-.144-5.247-.475-5.247-.475-2.694-.175-2.381-4.297.306-4.113 0 0 8.275.625 13.178.625 5.235 0 13.325-.625 13.325-.625a2.063 2.063 0 0 1 .325 4.113s-2.718.328-5.725.475l18.41 55.03 4.997-16.643c2.543-6.5 3.809-11.875 3.809-16.172zm-32.884 6.881l-15 43.6A49.54 49.54 0 0 0 64.002 114a50.229 50.229 0 0 0 16.612-2.834 7.215 7.215 0 0 1-.369-.688zm43.006-28.368a37.334 37.334 0 0 1 .337 5.14 47.292 47.292 0 0 1-3.81 17.928l-15.265 44.172a50.076 50.076 0 0 0 18.738-67.24z" class="cls-2"/><path d="M1.5 64A62.5 62.5 0 1 0 64 1.5 62.574 62.574 0 0 0 1.5 64zm6.234 0A56.266 56.266 0 1 1 64 120.253 56.315 56.315 0 0 1 7.734 64z" class="cls-2"/></svg>