<svg id="Layer_1" data-name="Layer 1" xmlns="http://www.w3.org/2000/svg" width="128" height="128" viewBox="0 0 128 128"><defs><style>.cls-1{fill:#fafafa;}.cls-2{fill:#efeff0;}.cls-3{fill:#fe9a21;}.cls-4{fill:#fe444d;}</style></defs><path class="cls-1" d="M104.6369,20.0152c-29.4924-16.81-58.24-15.79-86.22,3.6018"/><path class="cls-2" d="M18.417,23.6167c-3.6922,3.7924-7.755,7.2394-10.8085,11.6273-2.0405,2.9321-3.4736,6.087-3.1112,9.7447.7027,7.0922,5.0753,10.98,12.7881,11.02,19.6932.101,39.3872.056,59.0809.0559,11.3134,0,22.6282.0787,33.94-.07,11.4053-.15,16.5525-8.8407,11.2712-18.929a37.5318,37.5318,0,0,0-4.043-5.8266c-3.6048-4.5224-8.5411-7.5459-12.8974-11.2235"/><path class="cls-2" d="M126.4779,81.7971c3.1548-10.3057-.5133-16.1055-11.2023-17.6394a32.6791,32.6791,0,0,0-4.583-.3043c-25.2564-.0352-50.5132-.118-75.7692-.022-7.6633.0292-15.36-.5743-22.9913.4251C4.2846,65.2582,1.3058,68.4987.4305,76.1783"/><path class="cls-3" d="M104.6369,20.0152c4.3563,3.6776,9.2926,6.7011,12.8974,11.2235a37.5318,37.5318,0,0,1,4.043,5.8266c5.2813,10.0883.1341,18.7787-11.2712,18.929-11.3116.149-22.6264.07-33.94.07-19.6937,0-39.3877.0451-59.0809-.0559-7.7128-.04-12.0854-3.9278-12.7881-11.02C4.1349,41.331,5.568,38.1761,7.6085,35.244c3.0535-4.3879,7.1163-7.8349,10.8085-11.6273C46.397,4.225,75.1445,3.2053,104.6369,20.0152ZM32.359,35.8886c1.6315-.468,3.52-.9614,3.5856-3.4919a3.3954,3.3954,0,0,0-3.6214-3.6943,3.4153,3.4153,0,0,0-3.7111,3.203C28.4434,34.16,29.7871,35.4631,32.359,35.8886Zm63.3343-.0827c2.3218-.11,3.807-1.3257,3.8612-3.5442a3.3551,3.3551,0,0,0-3.3809-3.5277c-2.191-.1468-3.78.8875-3.9542,3.2736C92.0415,34.4469,93.6005,35.4152,95.6933,35.8059ZM67.8165,24.1406c-.3791-2.1427-1.7193-3.4391-3.9415-3.31-1.9457.1129-3.4983,1.2238-3.47,3.3718A3.2749,3.2749,0,0,0,64.0684,27.77C66.2068,27.68,67.7505,26.6678,67.8165,24.1406Z"/><path class="cls-4" d="M.4305,76.1783c.8753-7.68,3.8541-10.92,11.5016-11.9218,7.6311-.9994,15.328-.3959,22.9913-.4251,25.256-.096,50.5128-.0132,75.7692.022a32.6791,32.6791,0,0,1,4.583.3043c10.689,1.5339,14.3571,7.3337,11.2023,17.6394-3.3732,4.3277-8.1005,5.951-13.2766,5.9651q-49.6827.1356-99.3657-.01C5.88,87.7217,1.5632,83.6739.4305,76.1783Z"/><path class="cls-3" d="M64.5116,95.618q25.3785.0015,50.7571.0113c7.6918.0151,9.3272,2.1428,8.3208,9.7506-1.2611,9.5323-8.2519,14.076-17.2922,14.1884-28.6549.3565-57.3193.299-85.9759.0036-10.7355-.1107-17.4035-10.0876-15.6341-19.417.7874-4.1511,4.0386-4.5717,7.39-4.5784,11.0461-.022,22.0924.0256,33.1386.0391Q54.8636,95.6273,64.5116,95.618Z"/><path class="cls-2" d="M32.359,35.8886c-2.5719-.4255-3.9156-1.7289-3.7469-3.9832a3.4153,3.4153,0,0,1,3.7111-3.203,3.3954,3.3954,0,0,1,3.6214,3.6943C35.8794,34.9272,33.9905,35.4206,32.359,35.8886Z"/><path class="cls-2" d="M95.6933,35.8059c-2.0928-.3907-3.6518-1.359-3.4739-3.7983.174-2.3861,1.7632-3.42,3.9542-3.2736a3.3551,3.3551,0,0,1,3.3809,3.5277C99.5,34.48,98.0151,35.6959,95.6933,35.8059Z"/><path class="cls-2" d="M67.8165,24.1406c-.066,2.5272-1.61,3.539-3.7481,3.6292a3.2749,3.2749,0,0,1-3.6634-3.5676c-.0283-2.148,1.5243-3.2589,3.47-3.3718C66.0972,20.7015,67.4374,21.9979,67.8165,24.1406Z"/></svg>