<svg id="Layer_1" data-name="Layer 1" xmlns="http://www.w3.org/2000/svg" width="128" height="128" viewBox="0 0 128 128"><defs><style>.cls-1{fill:#104e74;}.cls-2{fill:#acc1c2;}.cls-3{fill:#f16e3f;}</style></defs><path class="cls-1" d="M60.4189,1.0334H80.6031c1.8816,1.1259,4.0807,1.02,6.0982,1.643C99.1,6.5049,110.255,12.2247,117.716,23.6669v.6657c-4.1026,8.564-7.7573,9.174-14.9549,2.8566C90.7278,16.6274,76.8154,12.67,61.2747,16.0836,36.26,21.5785,20.5805,45.0467,23.9723,71.4267c3.3838,26.3177,29.2275,45.6243,54.6782,41.03a48.7076,48.7076,0,0,0,26.0016-13.3737c4.14-4.0334,9.2371-3.05,11.6758,2.167.344.736.6023,1.37,1.3881,1.6338v1.3313c-2.1575,4.326-5.6142,7.4147-9.3176,10.282a60.6239,60.6239,0,0,1-30.3527,12.4691l-13.7642-.01c-25.7432-3.267-46.13-21.4925-52.78-47.1476-.26-1.0035-.0861-2.2485-1.2175-2.8867V50.96c1.1588-.62.9547-1.8744,1.244-2.8776C18.4789,23.9741,33.693,8.57,57.5842,2.2423,58.5464,1.9875,59.7959,2.2049,60.4189,1.0334Z"/><path class="cls-2" d="M71.0893,108.4105c-22.81-.066-41.0368-17.1136-43.0923-40.92C26.038,44.8014,41.5493,24.126,63.3121,20.2691c14.2652-2.5282,26.8419,1.2422,37.5922,11.2242,2.0393,1.8937,3.3162,4.15,2.8941,7.0361a6.49,6.49,0,0,1-4.2769,5.4383,6.7531,6.7531,0,0,1-7.53-1.5806,30.0155,30.0155,0,0,0-16.2856-8.4277C59.2525,31.1076,43.1483,44.04,41.664,61.3382c-1.4665,17.0906,11.7071,32.4465,28.1971,32.97a28.5765,28.5765,0,0,0,21.6324-8.2629c2.2373-2.1631,4.755-3.1785,7.714-2.1883a6.54,6.54,0,0,1,4.5378,5.58,7.4939,7.4939,0,0,1-2.6041,6.8091C92.69,104.3507,82.717,108.5208,71.0893,108.4105Z"/><path class="cls-3" d="M96.3283,63.9194c.0488,14.3426-11.0952,25.8737-25.0308,25.9-13.9864.0268-25.1654-11.3954-25.1847-25.7324-.0194-14.3724,11.07-25.8619,25.0216-25.9238C85.0424,38.1018,96.28,49.59,96.3283,63.9194Zm-13.8231-.0268A11.4913,11.4913,0,0,0,71.03,52.376a11.6649,11.6649,0,0,0-11.173,11.5668,11.3288,11.3288,0,1,0,22.6479-.05Z"/></svg>