<svg id="Layer_1" data-name="Layer 1" xmlns="http://www.w3.org/2000/svg" width="128" height="128"><defs><style>.cls-2{fill:#efeff0}.cls-3{fill:#fe9a21}</style></defs><path d="M104.637 20.015c-29.493-16.81-58.24-15.79-86.22 3.602" fill="#fafafa"/><path class="cls-2" d="M18.417 23.617c-3.692 3.792-7.755 7.24-10.809 11.627-2.04 2.932-3.473 6.087-3.11 9.745.702 7.092 5.075 10.98 12.787 11.02 19.694.1 39.388.056 59.081.056 11.314 0 22.628.078 33.94-.07 11.406-.15 16.553-8.841 11.271-18.93a37.532 37.532 0 00-4.043-5.826c-3.604-4.522-8.54-7.546-12.897-11.223M126.478 81.797c3.155-10.306-.513-16.105-11.202-17.64a32.68 32.68 0 00-4.583-.304c-25.257-.035-50.514-.118-75.77-.022-7.663.03-15.36-.574-22.99.426C4.284 65.258 1.305 68.499.43 76.178"/><path class="cls-3" d="M104.637 20.015c4.356 3.678 9.292 6.701 12.897 11.224a37.532 37.532 0 014.043 5.826c5.282 10.089.134 18.779-11.27 18.93-11.312.148-22.627.07-33.94.07-19.695 0-39.389.044-59.082-.057-7.713-.04-12.085-3.927-12.788-11.02-.362-3.657 1.071-6.812 3.112-9.744 3.053-4.388 7.116-7.835 10.808-11.627 27.98-19.392 56.727-20.412 86.22-3.602zM32.359 35.89c1.632-.468 3.52-.962 3.586-3.492a3.395 3.395 0 00-3.622-3.695 3.415 3.415 0 00-3.71 3.203c-.17 2.255 1.174 3.558 3.746 3.984zm63.334-.083c2.322-.11 3.807-1.326 3.862-3.544a3.355 3.355 0 00-3.381-3.528c-2.191-.147-3.78.887-3.955 3.274-.177 2.439 1.382 3.407 3.474 3.798zM67.817 24.14c-.38-2.143-1.72-3.44-3.942-3.31-1.946.113-3.498 1.223-3.47 3.371a3.275 3.275 0 003.663 3.568c2.139-.09 3.683-1.102 3.749-3.63z"/><path d="M.43 76.178c.876-7.68 3.855-10.92 11.502-11.922 7.631-.999 15.328-.395 22.991-.425 25.256-.096 50.513-.013 75.77.022a32.68 32.68 0 014.583.305c10.689 1.534 14.357 7.333 11.202 17.64-3.373 4.327-8.1 5.95-13.277 5.964q-49.682.136-99.365-.01C5.88 87.722 1.563 83.674.43 76.178z" fill="#fe444d"/><path class="cls-3" d="M64.512 95.618q25.378.002 50.757.011c7.691.015 9.327 2.143 8.32 9.75-1.26 9.533-8.251 14.077-17.292 14.19-28.655.356-57.319.298-85.976.003-10.735-.11-17.403-10.088-15.634-19.417.788-4.151 4.039-4.572 7.39-4.578 11.046-.022 22.093.025 33.139.039q9.648.011 19.296.002z"/><path class="cls-2" d="M32.359 35.889c-2.572-.426-3.916-1.73-3.747-3.984a3.415 3.415 0 013.711-3.203 3.395 3.395 0 013.622 3.695c-.066 2.53-1.955 3.024-3.586 3.492zM95.693 35.806c-2.093-.39-3.652-1.36-3.474-3.798.174-2.386 1.764-3.42 3.955-3.274a3.355 3.355 0 013.38 3.528c-.054 2.218-1.539 3.434-3.86 3.544zM67.817 24.14c-.066 2.528-1.61 3.54-3.749 3.63a3.275 3.275 0 01-3.663-3.568c-.028-2.148 1.524-3.259 3.47-3.372 2.222-.128 3.562 1.168 3.942 3.31z"/></svg>