<svg data-name="Layer 1" xmlns="http://www.w3.org/2000/svg" width="128" height="128"><path d="M60.419 1.033h20.184c1.882 1.126 4.08 1.02 6.098 1.643 12.399 3.829 23.554 9.549 31.015 20.99v.667c-4.103 8.564-7.757 9.174-14.955 2.856C90.728 16.627 76.815 12.67 61.275 16.084 36.26 21.578 20.58 45.047 23.972 71.427c3.384 26.317 29.228 45.624 54.678 41.03a48.708 48.708 0 0026.002-13.374c4.14-4.033 9.237-3.05 11.676 2.167.344.736.602 1.37 1.388 1.634v1.331c-2.158 4.326-5.614 7.415-9.318 10.282a60.624 60.624 0 01-30.352 12.47l-13.765-.01c-25.743-3.268-46.13-21.493-52.78-47.148-.26-1.004-.086-2.249-1.217-2.887V50.96c1.159-.62.955-1.874 1.244-2.878 6.95-24.108 22.165-39.512 46.056-45.84.962-.254 2.212-.037 2.835-1.209z" fill="#104e74"/><path d="M71.09 108.41c-22.81-.065-41.038-17.113-43.093-40.92-1.959-22.689 13.552-43.364 35.315-47.22 14.265-2.53 26.842 1.241 37.592 11.223 2.04 1.894 3.317 4.15 2.894 7.036a6.49 6.49 0 01-4.277 5.439 6.753 6.753 0 01-7.53-1.58 30.015 30.015 0 00-16.285-8.429C59.252 31.108 43.148 44.04 41.664 61.34c-1.466 17.09 11.707 32.446 28.197 32.97a28.576 28.576 0 0021.632-8.264c2.238-2.163 4.756-3.178 7.715-2.188a6.54 6.54 0 014.537 5.58 7.494 7.494 0 01-2.604 6.81C92.69 104.35 82.717 108.52 71.09 108.41z" fill="#acc1c2"/><path d="M96.328 63.92c.05 14.342-11.095 25.873-25.03 25.9-13.987.026-25.166-11.396-25.185-25.733-.02-14.372 11.07-25.862 25.021-25.924C85.042 38.102 96.28 49.59 96.328 63.92zm-13.823-.027A11.491 11.491 0 0071.03 52.376a11.665 11.665 0 00-11.173 11.567 11.329 11.329 0 1022.648-.05z" fill="#f16e3f"/></svg>