<svg id="Layer_1" data-name="Layer 1" xmlns="http://www.w3.org/2000/svg" width="128" height="128"><defs><style>.cls-2{fill:#bf5f29}</style></defs><path d="M44.34 7.864c-4.56 5.952-5.876 12.181-4.203 18.904a20.583 20.583 0 0010.627 13.707c17.233 9.162 34.456 18.345 51.765 27.363 20.934 10.907 23.596 39.62 4.835 53.404a29.57 29.57 0 01-19.139 6.07 25.889 25.889 0 004.423-10.446 21.595 21.595 0 00-10.84-22.048c-17.528-9.315-35.2-18.37-52.6-27.92A40.11 40.11 0 0120.09 2.865c.703-.683 1.424-1.35 2.317-2.196.413 3.33.795 6.374 1.166 9.42a3.906 3.906 0 01-.417 1.926c-7.34 18.727-.197 42.705 20.595 52.19C56.455 70 68.507 77.228 80.853 83.81c3.1 1.652 6.179 3.344 9.313 4.93a32.496 32.496 0 0113.21 12.387c.766 1.252 1.652 2.37 3.191 1.517 1.674-.929 1.188-2.294.342-3.658-4.334-6.984-10.474-11.785-17.723-15.53-15.619-8.07-31.136-16.338-46.63-24.646C32.38 53.353 26.782 44.625 24.96 33.317a38.38 38.38 0 012.013-19.793c.268-.722.45-1.442 1.204-1.82a31.685 31.685 0 0116.164-3.84z" fill="#223b72"/><path class="cls-2" d="M84.024 106.75c3.266 6.2 2.143 12.768-2.607 17.136a4.823 4.823 0 01-2.947 1.245c-17.96 1.666-35.541.343-52.304-6.919-5.423-2.349-10.434-5.374-14.149-10.174a20.308 20.308 0 01-.898-22.684 19.248 19.248 0 0119.941-8.742c9.697 1.827 15.26 7.354 16.554 16.385.254 1.772.327 2.948-2.181 2.99a8.532 8.532 0 00-7.785 6.136c-1.16 4.092-.062 7.61 3.23 10.054 3.67 2.725 7.977 3.8 12.37 4.596a42.659 42.659 0 0017.981-.153c5.569-1.369 10.412-3.729 12.795-9.87zM55.506 33.413c-5.782-2.549-9.031-11.294-6.383-16.558.592-1.176 1.604-1.121 2.537-1.248 10.954-1.494 21.73-.983 32.2 2.927 1.015.379 2.095.58 3.125.923 2.493.83 4.163-.126 4.885-2.499.45-1.475 1.291-1.694 2.601-1.673 1.072.018 1.646.144 1.728 1.45q1.05 16.68 2.255 33.352c.077 1.085-.28 1.189-1.243 1.22-4.154.134-4.153.176-5.123-4.09a44.191 44.191 0 00-6.749-16.086c-5.238-7.405-17-8.981-23.448-6.919-3.941 1.261-5.878 4.173-6.385 9.2z"/></svg>