<svg id="Layer_1" data-name="Layer 1" xmlns="http://www.w3.org/2000/svg" width="128" height="128" viewBox="0 0 128 128"><defs><style>.cls-1{fill:#223b72;}.cls-2{fill:#bf5f29;}</style></defs><path class="cls-1" d="M44.34,7.864C39.78,13.8163,38.464,20.0452,40.1372,26.7679A20.5833,20.5833,0,0,0,50.7638,40.4748C67.9973,49.6366,85.22,58.82,102.5292,67.8379c20.9341,10.9071,23.5954,39.62,4.835,53.4041a29.5694,29.5694,0,0,1-19.1392,6.07,25.8888,25.8888,0,0,0,4.4232-10.4464A21.5948,21.5948,0,0,0,81.8089,94.8183c-17.5289-9.3153-35.2-18.37-52.6-27.92A40.1109,40.1109,0,0,1,20.09,2.8652c.7033-.6837,1.4236-1.35,2.3174-2.1959.4131,3.33.7944,6.3739,1.166,9.42a3.9056,3.9056,0,0,1-.4174,1.9256c-7.3391,18.7274-.1966,42.7049,20.5953,52.19C56.4554,70.0007,68.5067,77.2281,80.8528,83.81c3.0995,1.6524,6.1792,3.3444,9.3127,4.93a32.4957,32.4957,0,0,1,13.2106,12.3867c.7654,1.2518,1.6519,2.3706,3.1912,1.5168,1.6736-.9282,1.1876-2.2937.3413-3.6576-4.3333-6.9838-10.4737-11.7849-17.723-15.53C73.5672,75.3859,58.05,67.1178,42.5565,58.81,32.3786,53.3533,26.7817,44.6253,24.9588,33.3172a38.3794,38.3794,0,0,1,2.0136-19.7929c.268-.7227.45-1.4426,1.2041-1.8211A31.6851,31.6851,0,0,1,44.34,7.864Z"/><path class="cls-2" d="M84.0244,106.75c3.2661,6.2,2.1423,12.7676-2.6072,17.1357a4.8234,4.8234,0,0,1-2.9468,1.2453c-17.96,1.6662-35.5416.3432-52.3047-6.9188-5.4227-2.3491-10.4339-5.3744-14.1484-10.1741a20.3075,20.3075,0,0,1-.8986-22.6843A19.2477,19.2477,0,0,1,31.06,76.6115c9.6967,1.8273,15.26,7.3541,16.5536,16.3856.2539,1.7722.3277,2.9481-2.181,2.99a8.5321,8.5321,0,0,0-7.7843,6.1359c-1.161,4.0921-.0625,7.6092,3.2295,10.0539,3.67,2.7254,7.9768,3.8007,12.3705,4.596a42.6586,42.6586,0,0,0,17.9807-.1533C76.7977,115.2512,81.6409,112.8914,84.0244,106.75Z"/><path class="cls-2" d="M55.5064,33.4129c-5.7821-2.5487-9.0314-11.2943-6.3829-16.5576.5919-1.1763,1.6034-1.1214,2.5365-1.2487,10.9535-1.4937,21.7306-.9831,32.2,2.9271,1.015.3791,2.0952.58,3.1253.9231,2.4932.83,4.1626-.1262,4.8849-2.4987.4492-1.475,1.2913-1.6946,2.6013-1.673,1.072.0177,1.6451.1435,1.7273,1.4491q1.051,16.6812,2.2548,33.3525c.0774,1.0854-.28,1.1891-1.2425,1.22-4.1541.134-4.1533.1765-5.123-4.0893a44.1914,44.1914,0,0,0-6.7491-16.0868c-5.238-7.4043-16.9994-8.9807-23.4476-6.9181C57.95,25.4733,56.0131,28.3849,55.5064,33.4129Z"/></svg>