<svg xmlns="http://www.w3.org/2000/svg" xmlns:xlink="http://www.w3.org/1999/xlink" id="Layer_1" data-name="Layer 1" viewBox="0 0 128 128"><defs><style>.cls-2{fill:none}.cls-3,.cls-4{fill:#be202e}.cls-4{opacity:.35;isolation:isolate}</style><linearGradient id="linear-gradient" x1="-5447.319" x2="-5429.24" y1="1018.084" y2="996.943" gradientTransform="scale(1 -1) rotate(65.001 -1875.966 4841.867)" gradientUnits="userSpaceOnUse"><stop offset="0" stop-color="#f69923"/><stop offset=".312" stop-color="#f79a23"/><stop offset=".838" stop-color="#e97826"/></linearGradient><linearGradient id="linear-gradient-2" x1="-5581.124" x2="-5452.14" y1="1020.419" y2="1020.419" gradientTransform="scale(1 -1) rotate(65.001 -1875.966 4841.867)" gradientUnits="userSpaceOnUse"><stop offset=".323" stop-color="#9e2064"/><stop offset=".63" stop-color="#c92037"/><stop offset=".751" stop-color="#cd2335"/><stop offset="1" stop-color="#e97826"/></linearGradient><linearGradient id="linear-gradient-3" x1="-5565.554" x2="-5488.692" y1="1007.48" y2="1007.48" gradientTransform="scale(1 -1) rotate(65.001 -1875.966 4841.867)" gradientUnits="userSpaceOnUse"><stop offset="0" stop-color="#282662"/><stop offset=".096" stop-color="#662e8d"/><stop offset=".788" stop-color="#9f2064"/><stop offset=".949" stop-color="#cd2032"/></linearGradient><linearGradient id="linear-gradient-4" x1="-5573.88" x2="-5444.895" y1="1021.625" y2="1021.625" xlink:href="#linear-gradient-2"/><linearGradient id="linear-gradient-5" x1="-5564.473" x2="-5496.688" y1="1019.875" y2="1019.875" xlink:href="#linear-gradient-3"/><linearGradient id="linear-gradient-6" x1="-5573.88" x2="-5444.895" y1="1008.27" y2="1008.27" xlink:href="#linear-gradient-2"/><linearGradient id="linear-gradient-7" x1="-5581.881" x2="-5452.896" y1="1008.929" y2="1008.929" xlink:href="#linear-gradient-2"/><linearGradient id="linear-gradient-8" x1="-5573.88" x2="-5444.895" y1="1004.3" y2="1004.3" xlink:href="#linear-gradient-2"/><linearGradient id="linear-gradient-9" x1="-5573.88" x2="-5444.895" y1="1004.755" y2="1004.755" xlink:href="#linear-gradient-2"/><linearGradient id="linear-gradient-10" x1="-5501.418" x2="-5472.908" y1="1004.844" y2="1004.844" xlink:href="#linear-gradient-2"/></defs><path fill="url(#linear-gradient)" d="M86.526.61c-2.007 1.183-5.342 4.54-9.324 9.4l3.658 6.904a90.208 90.208 0 0 1 7.807-9.8c.203-.224.31-.33.31-.33l-.31.33a81.667 81.667 0 0 0-7.332 9.936 137.606 137.606 0 0 0 14.222-1.76c1.4-7.837-1.372-11.426-1.372-11.426S90.663-1.835 86.526.61z"/><path d="M80.333 39.997l.082-.015-.527.057c-.033.015-.06.03-.094.043.182-.028.36-.058.54-.085zM76.6 52.365zM51.221 80.108c.04-.103.079-.206.115-.309q1.208-3.188 2.393-6.205 1.33-3.388 2.628-6.565 1.368-3.353 2.699-6.481 1.394-3.285 2.746-6.327 1.1-2.475 2.166-4.797.354-.772.708-1.532.7-1.504 1.384-2.947.632-1.33 1.254-2.604c.136-.285.276-.563.412-.845.021-.045.045-.09.067-.136l-.449.048-.357-.702c-.033.07-.07.136-.106.206q-.963 1.912-1.908 3.86-.545 1.127-1.087 2.263-1.5 3.148-2.95 6.348-1.467 3.23-2.874 6.486-1.386 3.194-2.713 6.387-1.327 3.185-2.593 6.342-1.322 3.293-2.568 6.52-.282.727-.56 1.454-1 2.603-1.947 5.136l.563 1.111.503-.054.054-.152q1.222-3.338 2.42-6.505zM75.451 52.565l.007-.003z" class="cls-2"/><path d="M74.24 58.594c-.466.085-.948.167-1.442.252l-.009.003c.249-.036.494-.073.736-.115s.479-.088.715-.14z" class="cls-3"/><path d="M74.24 58.594c-.466.085-.948.167-1.442.252l-.009.003c.249-.036.494-.073.736-.115s.479-.088.715-.14z" class="cls-4"/><path d="M75.464 52.559l-.003.003-.006.003c.078-.01.154-.024.23-.033.312-.046.617-.1.914-.164-.372.06-.75.127-1.135.19z" class="cls-3"/><path d="M75.464 52.559l-.003.003-.006.003c.078-.01.154-.024.23-.033.312-.046.617-.1.914-.164-.372.06-.75.127-1.135.19z" class="cls-4"/><path fill="url(#linear-gradient-2)" d="M70.076 34.755q1.667-3.117 3.377-6.088 1.771-3.08 3.585-5.966c.07-.112.143-.227.212-.342q1.79-2.834 3.613-5.445l-3.658-6.905c-.276.336-.551.679-.833 1.027a164.337 164.337 0 0 0-3.274 4.228 204.018 204.018 0 0 0-3.891 5.387 226.445 226.445 0 0 0-6.862 10.46l-.119.191 4.761 9.403q1.526-3.02 3.09-5.95z"/><path fill="url(#linear-gradient-3)" d="M48.392 87.737q-.944 2.599-1.898 5.297l-.028.078c-.09.255-.178.51-.27.764-.427 1.214-.8 2.307-1.65 4.794 1.402.639 2.529 2.322 3.595 4.233a7.678 7.678 0 0 0-2.487-5.275c6.914.312 12.871-1.436 15.951-6.49a12.754 12.754 0 0 0 .754-1.43c-1.399 1.775-3.134 2.529-6.402 2.344l-.021.009.021-.01c4.81-2.152 7.223-4.218 9.355-7.643.506-.811.996-1.699 1.499-2.683a15.068 15.068 0 0 1-14.212 4.616l-3.85.42c-.12.325-.238.649-.357.976z"/><path fill="url(#linear-gradient-4)" d="M50.188 79.115q1.25-3.225 2.568-6.52 1.263-3.152 2.593-6.341 1.326-3.19 2.713-6.387 1.409-3.253 2.874-6.487 1.45-3.194 2.95-6.348.54-1.136 1.088-2.262.944-1.949 1.907-3.861c.034-.07.07-.137.106-.206l-4.76-9.404-.233.382a222.51 222.51 0 0 0-3.298 5.557q-1.645 2.867-3.223 5.833-1.33 2.499-2.595 5.042l-.503 1.027a139.12 139.12 0 0 0-2.822 6.18q-1.44 3.372-2.544 6.43a121.76 121.76 0 0 0-1.336 3.874c-.333 1.06-.65 2.123-.95 3.18q-1.068 3.738-1.827 7.456l4.785 9.445q.95-2.534 1.947-5.136l.56-1.454z"/><path fill="url(#linear-gradient-5)" d="M42.832 76.595a73.467 73.467 0 0 0-1.241 9.025c-.006.106-.019.209-.025.315-1.493-2.393-5.49-4.728-5.481-4.706 2.862 4.149 5.033 8.267 5.357 12.31-1.532.315-3.63-.139-6.057-1.032a12.169 12.169 0 0 0 5.167 3.137c-2.323.145-4.743 1.741-7.18 3.58 3.564-1.454 6.444-2.029 8.507-1.563-3.27 9.261-6.55 19.485-9.83 30.34a2.856 2.856 0 0 0 1.941-1.888c.585-1.965 4.464-14.86 10.542-31.81q.259-.722.524-1.454c.048-.136.1-.272.148-.406q.963-2.666 1.996-5.442l.473-1.266.009-.024-4.78-9.443c-.021.106-.049.215-.07.327z"/><path fill="url(#linear-gradient-6)" d="M67.726 41.499l-.412.845q-.618 1.276-1.254 2.604-.686 1.44-1.384 2.947c-.236.506-.47 1.014-.709 1.532q-1.067 2.322-2.165 4.797-1.35 3.044-2.747 6.327-1.33 3.13-2.698 6.48-1.3 3.18-2.629 6.566-1.185 3.021-2.392 6.206c-.04.103-.079.206-.115.308q-1.2 3.167-2.417 6.502c-.018.052-.036.103-.055.152l3.85-.421c-.076-.015-.155-.024-.23-.04 4.603-.572 10.72-4.012 14.675-8.258a36.5 36.5 0 0 0 5.006-6.965 60.072 60.072 0 0 0 3.226-6.708 97.399 97.399 0 0 0 2.568-7.023 13.956 13.956 0 0 1-3.604 1.25 17.78 17.78 0 0 1-1.45.254l.008-.002c4.292-1.65 7-4.84 8.968-8.743a15.287 15.287 0 0 1-5.164 2.262c-.3.067-.605.118-.914.164-.08.012-.155.024-.23.033l.006-.003.003-.003a17.465 17.465 0 0 0 3.837-2.144 13.467 13.467 0 0 0 2.193-2.087 14.949 14.949 0 0 0 1.202-1.654c.115-.181.227-.366.339-.557.142-.275.278-.545.412-.811.6-1.206 1.078-2.28 1.46-3.226a30.846 30.846 0 0 0 .663-1.783c.152-.455.276-.857.373-1.212a11.93 11.93 0 0 0 .281-1.257 4.623 4.623 0 0 1-.5.343 18.126 18.126 0 0 1-5.312 1.808l3.535-.388-3.535.388-.081.015c-.179.03-.36.057-.542.088.033-.016.06-.03.094-.043L67.793 41.37a6.882 6.882 0 0 1-.067.13z"/><path fill="url(#linear-gradient-7)" d="M81.339 17.053a163.445 163.445 0 0 0-3.513 5.648c-.067.11-.133.225-.2.337q-1.636 2.757-3.468 6.066-1.58 2.861-3.288 6.156-1.49 2.876-3.074 6.105L79.89 40.04a14.704 14.704 0 0 0 6.626-5.206c.406-.585.814-1.196 1.22-1.83a76.221 76.221 0 0 0 3.55-6.195 64.366 64.366 0 0 0 2.689-5.915 31.059 31.059 0 0 0 1.066-3.2c.221-.84.394-1.636.527-2.396a137.839 137.839 0 0 1-14.228 1.756z"/><path d="M73.525 58.734a18.648 18.648 0 0 0 0 0z" class="cls-3"/><path d="M73.525 58.734a18.648 18.648 0 0 0 0 0z" class="cls-4"/><path fill="url(#linear-gradient-8)" d="M73.525 58.734a18.648 18.648 0 0 0 0 0z"/><path d="M75.451 52.565c.08-.01.155-.024.23-.033-.075.009-.15.02-.23.033z" class="cls-3"/><path d="M75.451 52.565c.08-.01.155-.024.23-.033-.075.009-.15.02-.23.033z" class="cls-4"/><path fill="url(#linear-gradient-9)" d="M75.451 52.565c.08-.01.155-.024.23-.033-.075.009-.15.02-.23.033z"/><path d="M75.46 52.562l.004-.003z" class="cls-3"/><path d="M75.46 52.562l.004-.003z" class="cls-4"/><path fill="url(#linear-gradient-10)" d="M75.46 52.562l.004-.003z"/></svg>