<svg xmlns="http://www.w3.org/2000/svg" id="Layer_1" data-name="Layer 1" viewBox="0 0 128 128"><defs><style>.cls-1{fill:#7911f6}.cls-2{fill:#eff0f2}</style></defs><path d="M63.895 13.849q18.46 0 36.922-.004a12.517 12.517 0 0 1 12.516 12.525c0 3.515-.09 7.031.18 10.54.42 5.457 1.2 10.842 3.547 15.858 1.658 3.542 4.002 6.426 7.96 7.582a2.866 2.866 0 0 0 .96.272c1.313-.133 1.28.675 1.251 1.597a77.018 77.018 0 0 0 .004 4.256c.012.492-.128.688-.625.772-5.519.928-8.387 4.744-10.255 9.565a50.64 50.64 0 0 0-2.887 14.988c-.209 3.019-.166 6.034-.112 9.05a12.673 12.673 0 0 1-4.953 10.727 11.714 11.714 0 0 1-7.431 2.567q-36.97-.01-73.938.011a12.556 12.556 0 0 1-12.376-12.293c-.053-3.668.106-7.339-.19-11.003-.43-5.347-1.22-10.621-3.48-15.55-1.62-3.526-3.922-6.406-7.809-7.641a4.211 4.211 0 0 0-1.617-.335c-.64.058-.81-.197-.802-.782.022-1.727.016-3.455.006-5.182-.003-.385.056-.61.523-.675 4.232-.591 7.067-3.094 9.039-6.72a35.788 35.788 0 0 0 3.59-11.872c.804-5.234.7-10.505.763-15.778.063-5.314 2.7-9.13 7.447-11.461a11.215 11.215 0 0 1 5.028-1.016q18.37.018 36.738.006zM77.96 64.117a27.034 27.034 0 0 0-4.464-1.277c.175-.264.436-.253.67-.316a11.065 11.065 0 0 0 5.562-3.471 12.468 12.468 0 0 0 2.542-12.486 11.229 11.229 0 0 0-4.914-6.489 20.09 20.09 0 0 0-10.865-2.875q-9.943.012-19.886.001c-1.385 0-1.41.025-1.41 1.388l.003 43.376c0 .307.017.615.026.923l-.03 7.487c-.002 1.139.064 1.204 1.21 1.205q10.355.002 20.712-.005a26.015 26.015 0 0 0 7.211-.929c4.912-1.418 8.74-4.146 10.42-9.181 2.315-6.939-.011-14.374-6.787-17.351z" class="cls-1"/><path d="M66.306 84.483c-3.843-.004-7.686-.03-11.53.01-.784.007-.964-.228-.958-.982.026-3.596-.01-7.193-.023-10.79l.053-5.764.026-.038q5.575-.002 11.149-.006c.306 0 .612-.016.918-.025l.08.034.085-.02a17.65 17.65 0 0 1 6.468 1.438 8.627 8.627 0 0 1 2.72 12.37c-1.582 2.215-3.966 3.018-6.504 3.482-.693.126-1.4.181-2.1.269zM53.85 52.26c0-2.373.014-4.747-.01-7.12-.007-.567.107-.812.75-.805 3.853.04 7.707-.002 11.559.062a9.037 9.037 0 0 1 5.734 1.967c3.602 2.95 3.144 9.403-.783 11.926a14.02 14.02 0 0 1-7.521 1.95c-2.958.067-5.919-.008-8.878.033-.713.01-.877-.218-.866-.893.04-2.373.016-4.746.015-7.12z" class="cls-1"/><path d="M66.107 66.902l-.085.02-.08-.034zM53.849 66.957l-.057-.047.083.009z" class="cls-2"/><path fill="#f8f8f8" d="M66.306 84.483l.385-.022c.045.094.291.159.17.231a.35.35 0 0 1-.555-.21z"/></svg>