<svg xmlns="http://www.w3.org/2000/svg" id="Layer_1" data-name="Layer 1" viewBox="0 0 128 128"><defs><style>.cls-1{fill:#01579b}.cls-2{fill:#40c4ff}.cls-4{fill:#fff;opacity:.2;isolation:isolate}</style></defs><path id="Path_4" d="M26.105 101.9L4.206 80.003A14.85 14.85 0 0 1 0 69.896a16.919 16.919 0 0 1 1.685-5.892l20.213-42.101z" class="cls-1" data-name="Path 4"/><path id="Path_5" d="M101.059 26.104L79.16 4.21C77.25 2.29 73.27.004 69.898.004a15.531 15.531 0 0 0-7.575 1.685L21.908 21.903z" class="cls-2" data-name="Path 5"/><path id="Path_6" d="M52.208 128.004h53.056v-22.736l-39.58-12.637-36.214 12.637z" class="cls-2" data-name="Path 6"/><path id="Path_7" fill="#29b6f6" d="M21.898 90.11c0 6.756.847 8.412 4.207 11.79l3.368 3.37h75.792L68.218 63.167l-46.32-41.265z" data-name="Path 7"/><path id="Path_8" d="M89.267 21.893H21.898l83.367 83.367H128V53.051L101.047 26.1c-3.785-3.791-7.14-4.206-11.78-4.206z" class="cls-1" data-name="Path 8"/><path id="Path_9" d="M26.952 102.738c-3.369-3.378-4.207-6.71-4.207-12.628V22.74l-.832-.832v68.201c-.01 5.92-.01 7.556 5.044 12.628l2.522 2.522z" class="cls-4" data-name="Path 9"/><path id="Path_10" fill="#263238" d="M127.162 52.213v52.208h-22.735l.833.847h22.735V53.045z" data-name="Path 10" style="isolation:isolate" opacity=".2"/><path id="Path_11" d="M101.059 26.11c-4.179-4.18-7.597-4.207-12.629-4.207H21.908l.832.832h65.69c2.511 0 8.854-.423 12.628 3.369z" class="cls-4" data-name="Path 11"/></svg>