<svg xmlns="http://www.w3.org/2000/svg" id="Layer_1" data-name="Layer 1" viewBox="0 0 128 128"><defs><style>.cls-1{fill:#27add8}.cls-2{fill:#e1eec8}.cls-3{fill:#a0ce66}.cls-4{fill:#0794c9}.cls-5{fill:#c0dd9a}</style></defs><path d="M1.28 57.57c2.157-2.77 2.373-6.665 5.244-9.022 1.534 4.943 5.684 6.126 10.025 6.414 3.934.26 5.768 2.185 6.363 5.787a7.875 7.875 0 0 1-1.902 5.358c-4.209 4.225-5.327 9.328-4.7 15.017-1.042 1.706-1.295 4.159-4.037 4.256-5.593-3.569-8.075-9.419-10.992-14.95z" class="cls-1"/><path d="M56.033 2.81c.97-1.627 3.353-.305 4.27-2.04h7.513c4.367 2.158 9.454 2.982 12.862 6.92-2.09 4.513-5.036 8.047-10.109 9.446-4.648 1.283-6.064.454-5.517-4.14.287-2.399-.393-3.714-2.588-3.328-5.904 1.039-6.52-2.494-6.43-6.858z" class="cls-2"/><path d="M60.304 127.231c-2.53-2.087-6.231-1.547-8.662-3.856 5.693-1.428 11.35-3.07 16.991-4.607a65.755 65.755 0 0 1 16.39-2.798c-4.48 6.366-11.296 8.95-18.28 11.261z" class="cls-3"/><path d="M85.023 115.97a65.755 65.755 0 0 0-16.39 2.797c-5.641 1.537-11.298 3.18-16.99 4.608-7.26-3.89-11.997-10.592-17.847-16.047-3.257-3.036-6.21-6.399-9.3-9.617 4.17-5.993 10.47-9.401 16.333-13.304 6.401-4.26 6.747-8.25.568-12.794-3.263-2.4-6.933-4.248-10.418-6.347 2.817-.98 3.85-5.006 7.58-4.424 1.096 1.69.707 5.413 4.258 3.888 2.726-1.171 2.994-3.716 1.65-6.346a8.494 8.494 0 0 1-.454-1.528c5.727-6.658 13.942-8.432 21.732-11.041 3.766 5.23 9.122 4.328 12.605-2.123 1.103-3.942 3.195-3.895 6.29-1.89 6.733 4.363 5.568 11.54 6.74 17.902-4.192.293-8.283.537-10.248-4.489a5.506 5.506 0 0 0-2.785-2.378c-6.037-2.8-12.494-2.865-17.831.676a17.078 17.078 0 0 0-8.04 15.352c.145 3.219 1.287 5.337 4.8 5.973 5.972 1.08 9.881 4.59 11.395 10.57-1.537 3.79-2.74 7.69-1.883 11.802.768 3.688 2.094 7.364 6.19 8.493 4.201 1.158 6.418-2.011 8.548-4.865a36.646 36.646 0 0 0 2.129-3.616c.72-1.41 2.164-2.884 2.044-4.218-1.02-11.31 3.25-21.195 7.911-31.012 2.667-.483 5.545 1.47 8.088-1.023 2.64-2.587.043-5.123-.152-7.6a7.905 7.905 0 0 1 6.99 1.076c.3 6.436 4.367 11.534 6.23 17.418.35 1.107 1.077 1.654 2.463 1.072 5.674-2.382 7.714-7.72 5.003-13.384l3.488-2.01c2.709 9.474-.22 19.341-7.238 24.376-1.053-4.76-3.398-8.205-8.785-8.432-6.432-.272-15.435 6.07-17.493 12.116-1.199 3.52.163 5.151 3.612 5.245a19.46 19.46 0 0 0 5.816-.528c2.86-.82 5.249-.451 7.382 1.6-7.612 8.399-15.72 16.306-23.99 24.052z" class="cls-4"/><path d="M91.38 59.704c-1.172-6.363-.007-13.539-6.741-17.902-3.094-2.005-5.186-2.052-6.289 1.89-3.504-1.279-6.97 2.334-10.482.08.636-.885 2.784-1.647 1.392-2.79-3.605-2.955-.3-3.532 1.336-4.716.946-.685 2.394-.776 2.608-2.29l-.08.07c3.135-.703 7.24-.764 6.198-5.586-1.679-7.778.198-10.897 8.402-12.662 2.849.666 4.201 3.193 6.062 5.02 8.536 8.377 16.93 16.9 25.437 25.308a23.2 23.2 0 0 1 6.498 11.416l-3.488 2.009c-1.352.27-3.485-.013-2.232 2.425.488.95 1.591 1.766.048 2.396-1.549.633-3.143-.133-4.564-.815-.96-.461-2.037-1.71-.807-2.392 2.325-1.286.384-1.858-.211-2.488-1.688-1.787-3.408-3.587-5.93-4.232a7.905 7.905 0 0 0-6.99-1.076c.194 2.477 2.791 5.013.152 7.6-2.543 2.492-5.421.54-8.088 1.023a3.55 3.55 0 0 0-2.231-2.288z" class="cls-2"/><path d="M73.204 33.976c-.214 1.514-1.662 1.605-2.608 2.29-1.636 1.185-4.941 1.762-1.336 4.717 1.392 1.142-.756 1.904-1.392 2.788-1.167.205-1.558 1.215-2.123 2.044-7.79 2.609-16.005 4.383-21.731 11.04q-.446-.177-.889-.364c-2.657-5.835.294-9.101 5.052-12.018 4.788-2.935 4.661-4.307-.502-6.46-4.359-1.818-6.959-4.173-5.194-9.219a63.876 63.876 0 0 0 5.882-6.18c1.885-2.56 2.033-5.017-2.084-5.622-1.703-2.308-4.768-.225-6.622-2.047 4.833-4.887 8.98-10.698 16.376-12.135-.09 4.365.527 7.897 6.431 6.858 2.195-.386 2.875.93 2.588 3.329-.547 4.593.869 5.422 5.517 4.14 5.073-1.4 8.018-4.934 10.109-9.447 2.552 2.526 5.947 4.323 7.046 8.11-8.204 1.764-10.08 4.883-8.402 12.66 1.041 4.823-3.064 4.884-6.198 5.586.747-2.554-.043-4.124-2.85-4.277-.823-.046-2.126-.14-2.122.928.012 2.522 2.062 2.856 4.013 3.135.346.049.693.096 1.04.144z" class="cls-1"/><path d="M109.015 91.917c-2.133-2.05-4.523-2.419-7.382-1.598a19.46 19.46 0 0 1-5.817.527c-3.449-.093-4.81-1.725-3.612-5.245 2.059-6.046 11.061-12.388 17.493-12.116 5.387.227 7.733 3.672 8.786 8.432-2.483 3.968-6.116 6.852-9.468 10z" class="cls-5"/><path d="M30.979 65.267c3.486 2.098 7.155 3.947 10.418 6.346 6.18 4.543 5.834 8.533-.568 12.794-5.863 3.903-12.162 7.311-16.333 13.304a21.432 21.432 0 0 1-5.862-5.676c2.425-4.318.782-7.77-2.325-10.91-.626-5.69.492-10.793 4.7-15.018a7.873 7.873 0 0 0 1.903-5.357q2.93 1.08 5.863 2.158c.343 1.152.802 2.195 2.204 2.36z" class="cls-3"/><path d="M16.309 81.124c3.107 3.141 4.75 6.593 2.325 10.911-2.275-2.069-4.683-4.014-6.361-6.655 2.742-.097 2.994-2.55 4.036-4.256z" class="cls-4"/><path d="M28.774 62.908l-5.862-2.158c-.595-3.604-2.429-5.528-6.363-5.789-4.34-.288-8.49-1.47-10.025-6.414 3.507-5.652 8.88-9.566 13.427-14.24C26.37 27.705 33.078 21.38 39.66 14.94c1.851 1.826 4.916-.257 6.62 2.05-1.869 2.043-3.714 4.108-5.612 6.124-2.834 3.01-2.137 4.852 1.813 5.679-1.764 5.045.836 7.4 5.194 9.218 5.164 2.154 5.29 3.525.502 6.46-4.758 2.917-7.71 6.183-5.052 12.018l-5.134 2.21c-5.422-3.73-6.833 1.302-9.217 4.208zM91.38 59.704a3.55 3.55 0 0 1 2.23 2.288c-4.66 9.817-8.93 19.703-7.91 31.012.12 1.334-1.325 2.808-2.045 4.217-2.555-.284-3.648-2.532-5.32-3.988-3.128-2.725-5.43-6.46-9.664-7.826-1.514-5.98-5.423-9.488-11.396-10.57-3.513-.635-4.654-2.753-4.8-5.972a17.078 17.078 0 0 1 8.04-15.352c5.338-3.541 11.795-3.476 17.832-.676a5.506 5.506 0 0 1 2.784 2.378c1.966 5.026 6.058 4.782 10.249 4.49z" class="cls-5"/><path d="M68.672 85.407c4.233 1.366 6.536 5.1 9.664 7.827 1.671 1.455 2.765 3.703 5.32 3.987a36.708 36.708 0 0 1-2.129 3.617c-2.13 2.854-4.347 6.023-8.549 4.865-4.095-1.129-5.42-4.805-6.19-8.493-.856-4.111.347-8.011 1.884-11.803z" class="cls-3"/><path d="M108.537 54.445c2.522.646 4.242 2.445 5.93 4.233.595.63 2.536 1.201.212 2.488-1.231.68-.154 1.93.806 2.391 1.42.682 3.015 1.448 4.565.815 1.542-.63.44-1.445-.049-2.396-1.253-2.438.88-2.154 2.232-2.425 2.71 5.663.67 11.003-5.004 13.384-1.385.582-2.113.036-2.463-1.072-1.863-5.883-5.93-10.981-6.229-17.418z" class="cls-1"/><path d="M65.745 45.815c.565-.83.956-1.84 2.123-2.044 3.512 2.255 6.978-1.358 10.482-.08-3.483 6.452-8.84 7.353-12.605 2.124z" class="cls-5"/><path d="M37.991 58.7l5.134-2.21q.443.188.889.366a8.456 8.456 0 0 0 .454 1.528c1.344 2.63 1.075 5.175-1.65 6.346-3.552 1.526-3.162-2.198-4.259-3.888q-.283-1.071-.568-2.141z" class="cls-3"/><path d="M37.991 58.7l.568 2.142c-3.73-.582-4.763 3.444-7.58 4.425-1.403-.164-1.862-1.207-2.204-2.359 2.383-2.906 3.794-7.938 9.216-4.207z" class="cls-1"/><path d="M42.481 28.794c-3.95-.827-4.647-2.669-1.813-5.678 1.898-2.016 3.743-4.081 5.612-6.124 4.116.604 3.968 3.062 2.083 5.62a63.876 63.876 0 0 1-5.882 6.182zM73.204 33.976c-.346-.048-.693-.095-1.04-.145-1.95-.278-4-.613-4.012-3.135-.005-1.067 1.298-.973 2.122-.928 2.807.154 3.597 1.723 2.85 4.277z" class="cls-2"/></svg>