<svg xmlns="http://www.w3.org/2000/svg" id="Layer_1" data-name="Layer 1" viewBox="0 0 128 128"><defs><style>.cls-1{fill:#30449b}</style></defs><path d="M101.192 64.665a8.833 8.833 0 0 1-3.475 3.317 13.092 13.092 0 0 1-7.246 1.157 42.344 42.344 0 0 1-9.733-2.049C67.203 62.748 53.8 58.006 40.32 53.496a2.2 2.2 0 0 0-.705-.167 1.402 1.402 0 0 0-.618 2.68 6.11 6.11 0 0 0 .593.22q17.75 6.02 35.503 12.036a92.103 92.103 0 0 0 9.7 2.859 26.386 26.386 0 0 0 10.312.622 12.19 12.19 0 0 0 9.49-7.499 13.001 13.001 0 0 0 .647-1.677 1.317 1.317 0 0 0-.432-1.45 1.234 1.234 0 0 0-1.45-.226c-2.4 1.326-5 1.357-7.621 1.191a50.913 50.913 0 0 1-9.93-1.823q-3.29-.879-6.51-1.99a.768.768 0 0 1-.506-.459 18.49 18.49 0 0 1-.834-13.15 19.285 19.285 0 0 1 19.637-13.392 17.888 17.888 0 0 1 3.8.651c-.591.566-1.13 1.093-1.685 1.605-.319.295-.492.612-.242 1.023.213.35.57.393 1.076.154 1.67-.793 3.335-1.6 5.013-2.374a4.606 4.606 0 0 1 4.605.245c6.804 4.287 9.96 10.465 9.415 18.486a4.561 4.561 0 0 1-2.682 3.803c-.804.422-1.61.843-2.428 1.234a1.347 1.347 0 0 0-.724.858c-.641 1.908-1.226 3.837-1.952 5.712a23.857 23.857 0 0 1-10.359 12.222 24.269 24.269 0 0 1-17.038 3.066 21.19 21.19 0 0 1-3.153-.815q-24.758-8.399-49.515-16.804a24.696 24.696 0 0 0-14.307-.492 29.938 29.938 0 0 0-5.881 2.157c-.084.041-.17.077-.351.158a13.065 13.065 0 0 1 1.157-2.354 25.625 25.625 0 0 1 25.123-12.294 21.149 21.149 0 0 1 4.067.945L76.3 60.248c3.64 1.236 7.294 2.43 11.041 3.302a40.172 40.172 0 0 0 11.785 1.335c.66-.043 1.317-.139 2.067-.22zm11.738-15.611c-.013-.092-.023-.188-.04-.283-.248-1.435-.492-2.87-.754-4.302a.833.833 0 0 1 .179-.757c.342-.41.655-.843.97-1.273.07-.095.21-.192.114-.339-.07-.109-.197-.08-.31-.08-.516 0-1.034-.02-1.55 0a.923.923 0 0 1-.794-.34 164.02 164.02 0 0 0-2.824-3.072c-.13-.137-.227-.447-.463-.328-.2.1-.037.357-.008.535.235 1.42.477 2.84.736 4.255a.702.702 0 0 1-.148.62 67.62 67.62 0 0 0-1.034 1.346c-.066.087-.158.182-.103.305.062.14.199.078.302.08.565.011 1.131.027 1.696.012a.7.7 0 0 1 .588.26c.65.72 1.31 1.43 1.969 2.144q.575.624 1.155 1.245c.107.115.227.216.319-.028z" class="cls-1"/><path d="M61.968 7.954q8.775 2.925 17.554 5.84c.433.143.484.297.346.71q-5.851 17.499-11.667 35.01c-.147.44-.307.471-.71.336q-11.541-3.866-23.094-7.697c-.397-.131-.485-.251-.345-.668q2.994-8.906 5.953-17.824A12.63 12.63 0 0 0 44.99 9.047a13.06 13.06 0 0 0-2.643-1.33c-.256-.096-.315-.193-.226-.455a286.51 286.51 0 0 0 1.658-4.989c.118-.369.3-.284.545-.202Q48.71 3.538 53.1 4.998zM96.58 84.213l-3.518 10.555-3.125 9.374a12.64 12.64 0 0 0 5.67 14.817 12.866 12.866 0 0 0 2.068.964c.238.085.292.18.21.422q-.913 2.697-1.8 5.403c-.081.247-.193.308-.42.202a2.487 2.487 0 0 0-.276-.094q-17.458-5.82-34.917-11.626c-.47-.156-.537-.305-.382-.768q5.347-15.97 10.653-31.954c.142-.428.266-.542.729-.383 2.732.934 5.458 1.895 8.223 2.726a30.976 30.976 0 0 0 16.18.459c.19-.044.378-.091.568-.133.026-.006.058.014.137.036zM33.877 92.009q-8.751-2.917-17.506-5.824c-.405-.134-.482-.265-.34-.672a214.082 214.082 0 0 0 1.682-5.032c.114-.354.21-.478.63-.353a12.654 12.654 0 0 0 14.898-6.557 32.212 32.212 0 0 0 1.455-4.022c.137-.415.284-.466.684-.332q11.516 3.86 23.044 7.682c.392.13.493.246.351.67q-3.355 9.99-6.667 19.995c-.127.385-.258.447-.64.319q-8.79-2.952-17.591-5.874z" class="cls-1"/></svg>