<svg xmlns="http://www.w3.org/2000/svg" id="Layer_1" data-name="Layer 1" viewBox="0 0 128 128"><defs><style>.cls-1{fill:#b71c1c}.cls-2{fill:#e53935}.cls-3{fill:#fff}</style></defs><path d="M126.652 78.367c0-1.9-5.03-3.44-11.245-3.44-5.406 0-9.905 1.167-10.988 2.718Q88.37 70.065 72.32 62.481a13.515 13.515 0 0 0-11.69.041L26.459 78.964a64.054 64.054 0 0 0-9.046-.6c-8.882.003-16.066 1.543-16.066 3.443V92.13c0 .098.099.19.134.286a3.768 3.768 0 0 0 1.937 4.41q25.244 11.927 50.486 23.85a15.501 15.501 0 0 0 13.414-.047q28.829-13.874 57.661-27.744a3.082 3.082 0 0 0 1.519-3.72 1.263 1.263 0 0 0 .155-.477z" class="cls-1"/><path d="M53.903 107.73L3.417 85.159a3.518 3.518 0 0 1-.021-6.403Q32.015 65.724 60.63 52.692a14.2 14.2 0 0 1 11.69-.042q26.319 11.77 52.64 23.537a2.879 2.879 0 0 1 .018 5.239q-28.83 13.13-57.662 26.257a16.305 16.305 0 0 1-13.413.048z" class="cls-2"/><path d="M126.652 55.57c0-1.9-5.03-3.44-11.245-3.44-5.406 0-9.905 1.167-10.988 2.719l-32.1-15.165a13.515 13.515 0 0 0-11.688.042L26.458 56.166a64.054 64.054 0 0 0-9.046-.6c-8.882.003-16.066 1.546-16.066 3.446v10.324c0 .098.098.19.134.286a3.768 3.768 0 0 0 1.936 4.41l50.487 23.85a15.501 15.501 0 0 0 13.414-.048q28.829-13.874 57.661-27.744a3.082 3.082 0 0 0 1.519-3.72 1.263 1.263 0 0 0 .155-.477z" class="cls-1"/><path d="M53.903 84.934Q28.658 73.648 3.417 62.361a3.518 3.518 0 0 1-.021-6.402L60.63 29.895a14.2 14.2 0 0 1 11.69-.042q26.319 11.77 52.64 23.537a2.879 2.879 0 0 1 .018 5.239q-28.83 13.13-57.662 26.257a16.282 16.282 0 0 1-13.413.048z" class="cls-2"/><path d="M126.652 32.777c0-1.9-5.03-3.44-11.245-3.44-5.406 0-9.905 1.167-10.988 2.718Q88.37 24.475 72.32 16.89a13.515 13.515 0 0 0-11.69.042L26.459 33.374a64.038 64.038 0 0 0-9.046-.6c-8.882.003-16.066 1.542-16.066 3.443V46.54c0 .099.099.19.134.286a3.768 3.768 0 0 0 1.937 4.41q25.244 11.927 50.486 23.85a15.501 15.501 0 0 0 13.414-.047q28.829-13.874 57.661-27.744a3.082 3.082 0 0 0 1.519-3.72 1.263 1.263 0 0 0 .155-.478z" class="cls-1"/><path d="M53.903 62.14Q28.658 50.854 3.417 39.567a3.518 3.518 0 0 1-.021-6.402L60.63 7.1a14.2 14.2 0 0 1 11.69-.041q26.319 11.77 52.64 23.537a2.879 2.879 0 0 1 .018 5.238q-28.83 13.13-57.662 26.258a16.294 16.294 0 0 1-13.413.047z" class="cls-2"/><path d="M48.33 34.883c-.006 3.11-8.24 6.137-15.195 6.224-7.217.09-15.732-2.963-15.758-6.12-.027-3.165 8.479-6.447 15.845-6.37 6.96.073 15.117 3.17 15.108 6.266zM43.228 46.012q10.71 4.573 21.415 9.15l9.434-13.963q-15.426 2.408-30.849 4.813zM57.614 20.067q-4.927 1.795-9.857 3.587 6.744.59 13.491 1.178l4.293 7.122 2.64-6.463 11.51-.895q-4.461-1.875-8.923-3.756l2.274-5.445-8.68 2.596q-4.788-1.889-9.576-3.774l2.828 5.85z" class="cls-3"/><path d="M73.746 34.52l20.33-8.113 17.56 7.465q-9.854 3.92-19.706 7.843-9.089-3.602-18.184-7.196z" class="cls-1"/><path fill="#a01c1c" d="M94.078 26.595l-.045 14.282q8.803-3.504 17.606-7.005z"/></svg>