<svg width="153" height="43" viewBox="0 0 153 43" fill="none" xmlns="http://www.w3.org/2000/svg">
<path d="M54.957 14.7227C56.2526 14.7227 57.3203 14.8789 58.1602 15.1914C59.0065 15.5039 59.6348 15.9759 60.0449 16.6074C60.4551 17.2389 60.6602 18.0365 60.6602 19C60.6602 19.651 60.5365 20.2207 60.2891 20.709C60.0417 21.1973 59.7161 21.6107 59.3125 21.9492C58.9089 22.2878 58.4727 22.5645 58.0039 22.7793L62.2031 29H58.8438L55.4355 23.5215H53.8242V29H50.7969V14.7227H54.957ZM54.7422 17.2031H53.8242V21.0605H54.8008C55.8034 21.0605 56.5195 20.8945 56.9492 20.5625C57.3854 20.224 57.6035 19.7292 57.6035 19.0781C57.6035 18.401 57.3691 17.9193 56.9004 17.6328C56.4382 17.3464 55.7188 17.2031 54.7422 17.2031ZM68.2676 17.877C69.2767 17.877 70.1458 18.0723 70.875 18.4629C71.6042 18.847 72.1673 19.4069 72.5645 20.1426C72.9616 20.8783 73.1602 21.7767 73.1602 22.8379V24.2832H66.1191C66.1517 25.123 66.4023 25.7839 66.8711 26.2656C67.3464 26.7409 68.0039 26.9785 68.8438 26.9785C69.5404 26.9785 70.1784 26.9069 70.7578 26.7637C71.3372 26.6204 71.9329 26.4056 72.5449 26.1191V28.4238C72.0046 28.6908 71.4382 28.8861 70.8457 29.0098C70.2598 29.1335 69.5469 29.1953 68.707 29.1953C67.6133 29.1953 66.6432 28.9935 65.7969 28.5898C64.957 28.1862 64.2962 27.571 63.8145 26.7441C63.3392 25.9173 63.1016 24.8757 63.1016 23.6191C63.1016 22.3431 63.3164 21.2819 63.7461 20.4355C64.1823 19.5827 64.7878 18.9447 65.5625 18.5215C66.3372 18.0918 67.2389 17.877 68.2676 17.877ZM68.2871 19.9961C67.7077 19.9961 67.2259 20.1816 66.8418 20.5527C66.4642 20.9238 66.2461 21.5065 66.1875 22.3008H70.3672C70.3607 21.8581 70.2793 21.4642 70.123 21.1191C69.9733 20.7741 69.7454 20.5007 69.4395 20.2988C69.14 20.097 68.7559 19.9961 68.2871 19.9961ZM80.0547 17.8574C81.5195 17.8574 82.6426 18.1764 83.4238 18.8145C84.2051 19.4525 84.5957 20.4225 84.5957 21.7246V29H82.5156L81.9395 27.5156H81.8613C81.5488 27.9062 81.2298 28.2253 80.9043 28.4727C80.5788 28.7201 80.2044 28.9023 79.7812 29.0195C79.3581 29.1367 78.8438 29.1953 78.2383 29.1953C77.5938 29.1953 77.0143 29.0716 76.5 28.8242C75.9922 28.5768 75.5918 28.1992 75.2988 27.6914C75.0059 27.1771 74.8594 26.526 74.8594 25.7383C74.8594 24.5794 75.2663 23.7266 76.0801 23.1797C76.8939 22.6263 78.1146 22.3203 79.7422 22.2617L81.6367 22.2031V21.7246C81.6367 21.1517 81.487 20.7318 81.1875 20.4648C80.888 20.1979 80.4714 20.0645 79.9375 20.0645C79.4102 20.0645 78.8926 20.1393 78.3848 20.2891C77.877 20.4388 77.3691 20.6276 76.8613 20.8555L75.875 18.8438C76.4544 18.5378 77.1022 18.2969 77.8184 18.1211C78.541 17.9453 79.2865 17.8574 80.0547 17.8574ZM81.6367 23.9414L80.4844 23.9805C79.5208 24.0065 78.8503 24.179 78.4727 24.498C78.1016 24.8171 77.916 25.237 77.916 25.7578C77.916 26.2135 78.0495 26.5391 78.3164 26.7344C78.5833 26.9232 78.9316 27.0176 79.3613 27.0176C79.9993 27.0176 80.5365 26.8288 80.9727 26.4512C81.4154 26.0736 81.6367 25.5365 81.6367 24.8398V23.9414ZM90.6504 29H87.6719V13.8047H90.6504V29ZM111.881 29H108.033L101.822 18.1992H101.734C101.76 18.6484 101.783 19.1009 101.803 19.5566C101.822 20.0124 101.842 20.4681 101.861 20.9238C101.881 21.373 101.9 21.8255 101.92 22.2812V29H99.2148V14.7227H103.033L109.234 25.416H109.303C109.29 24.9733 109.273 24.5339 109.254 24.0977C109.234 23.6615 109.215 23.2253 109.195 22.7891C109.182 22.3529 109.169 21.9167 109.156 21.4805V14.7227H111.881V29ZM119.752 17.877C120.761 17.877 121.63 18.0723 122.359 18.4629C123.089 18.847 123.652 19.4069 124.049 20.1426C124.446 20.8783 124.645 21.7767 124.645 22.8379V24.2832H117.604C117.636 25.123 117.887 25.7839 118.355 26.2656C118.831 26.7409 119.488 26.9785 120.328 26.9785C121.025 26.9785 121.663 26.9069 122.242 26.7637C122.822 26.6204 123.417 26.4056 124.029 26.1191V28.4238C123.489 28.6908 122.923 28.8861 122.33 29.0098C121.744 29.1335 121.031 29.1953 120.191 29.1953C119.098 29.1953 118.128 28.9935 117.281 28.5898C116.441 28.1862 115.781 27.571 115.299 26.7441C114.824 25.9173 114.586 24.8757 114.586 23.6191C114.586 22.3431 114.801 21.2819 115.23 20.4355C115.667 19.5827 116.272 18.9447 117.047 18.5215C117.822 18.0918 118.723 17.877 119.752 17.877ZM119.771 19.9961C119.192 19.9961 118.71 20.1816 118.326 20.5527C117.949 20.9238 117.73 21.5065 117.672 22.3008H121.852C121.845 21.8581 121.764 21.4642 121.607 21.1191C121.458 20.7741 121.23 20.5007 120.924 20.2988C120.624 20.097 120.24 19.9961 119.771 19.9961ZM136.041 29L135.201 25.1816C135.156 24.9538 135.081 24.6185 134.977 24.1758C134.872 23.7266 134.758 23.248 134.635 22.7402C134.518 22.2259 134.407 21.7507 134.303 21.3145C134.205 20.8783 134.133 20.5592 134.088 20.3574H134C133.954 20.5592 133.883 20.8783 133.785 21.3145C133.688 21.7507 133.577 22.2259 133.453 22.7402C133.336 23.2546 133.225 23.7396 133.121 24.1953C133.017 24.6445 132.939 24.9863 132.887 25.2207L132.008 29H128.805L125.699 18.082H128.668L129.928 22.916C130.012 23.2546 130.094 23.6582 130.172 24.127C130.25 24.5892 130.318 25.0384 130.377 25.4746C130.442 25.9043 130.491 26.2461 130.523 26.5H130.602C130.615 26.3112 130.641 26.0605 130.68 25.748C130.725 25.4355 130.774 25.1133 130.826 24.7812C130.885 24.4427 130.937 24.14 130.982 23.873C131.035 23.5996 131.074 23.4141 131.1 23.3164L132.447 18.082H135.729L137.008 23.3164C137.053 23.5052 137.112 23.8047 137.184 24.2148C137.262 24.625 137.33 25.0482 137.389 25.4844C137.447 25.9141 137.48 26.2526 137.486 26.5H137.564C137.59 26.2786 137.636 25.9499 137.701 25.5137C137.766 25.0775 137.841 24.6217 137.926 24.1465C138.017 23.6647 138.108 23.2546 138.199 22.916L139.508 18.082H142.428L139.283 29H136.041ZM151.812 25.7578C151.812 26.5 151.637 27.1283 151.285 27.6426C150.94 28.1504 150.423 28.5378 149.732 28.8047C149.042 29.0651 148.183 29.1953 147.154 29.1953C146.393 29.1953 145.738 29.1465 145.191 29.0488C144.651 28.9512 144.104 28.7884 143.551 28.5605V26.0996C144.143 26.3665 144.778 26.5879 145.455 26.7637C146.139 26.9329 146.738 27.0176 147.252 27.0176C147.831 27.0176 148.245 26.9329 148.492 26.7637C148.746 26.5879 148.873 26.36 148.873 26.0801C148.873 25.8978 148.821 25.735 148.717 25.5918C148.619 25.4421 148.404 25.276 148.072 25.0938C147.74 24.9049 147.219 24.6608 146.51 24.3613C145.826 24.0749 145.263 23.7852 144.82 23.4922C144.384 23.1992 144.059 22.8542 143.844 22.457C143.635 22.0534 143.531 21.5423 143.531 20.9238C143.531 19.9147 143.922 19.1562 144.703 18.6484C145.491 18.1341 146.542 17.877 147.857 17.877C148.535 17.877 149.179 17.9453 149.791 18.082C150.41 18.2188 151.044 18.4368 151.695 18.7363L150.797 20.8848C150.257 20.6504 149.745 20.4583 149.264 20.3086C148.788 20.1589 148.303 20.084 147.809 20.084C147.372 20.084 147.044 20.1426 146.822 20.2598C146.601 20.377 146.49 20.556 146.49 20.7969C146.49 20.9727 146.546 21.1289 146.656 21.2656C146.773 21.4023 146.995 21.5553 147.32 21.7246C147.652 21.8874 148.137 22.099 148.775 22.3594C149.394 22.6133 149.931 22.8802 150.387 23.1602C150.842 23.4336 151.194 23.7754 151.441 24.1855C151.689 24.5892 151.812 25.1133 151.812 25.7578Z" fill="#9CA3AF"/>
<path d="M0 43V0C3.65113 0.454833 5.5 1.00585 8.25 3.52047C22.75 -5.02924 39 3.52047 40 17.0994V43C34.9924 41.7367 32.8092 40.3061 30.25 36.2105V17.0994C27.25 7.79532 13.25 7.54386 9.5 17.0994V36.2105L0 43Z" fill="#9CA3AF"/>
</svg>
